M48
;Layer_Color=9474304
;FILE_FORMAT=2:4
INCH,TZ
;TYPE=PLATED
T2F00S00C0.0120
T4F00S00C0.0354
T5F00S00C0.0394
;TYPE=NON_PLATED
T6F00S00C0.0390
T7F00S00C0.0701
T8F00S00C0.1260
%
T02
X698Y285
X728Y1035
X1648
X1696Y1470
X2176Y1660
X2446Y2050
X2566Y2480
X2589Y3193
X1686Y3170
X698Y3255
Y2255
X1192Y1720
X2636Y1130
X3697Y1255
X4010Y1290
X3697Y2255
X2697Y4255
X1698
X1410Y4790
X1420Y5250
X698Y5255
X490Y6500
X1698Y6255
X2050Y5630
X3290Y6040
X3370Y4990
X1698Y7255
Y8255
X698
Y9255
X2697
Y8255
X2056Y290
X4697Y285
Y1255
X4330Y2140
X7020Y2460
X7730Y2760
X8220Y3260
X8201Y4481
Y5131
X7920Y4875
X8201Y5781
X8680Y5450
X8160Y6590
X8320Y7430
X8010Y7440
X7490Y7960
X8000Y8500
X8320Y8480
X7450Y9010
X5460Y8880
X5920Y7410
X6110Y6750
X6380Y6360
X6240Y5890
X6180Y5400
X6970Y5374
X7026Y6560
X5040Y6010
X5110Y5710
X4260Y5800
X5110Y4460
X5870Y4480
X6690Y3850
X6697Y1255
X6950Y880
X6697Y285
X7697
X8698
X9697
Y1255
X9690Y2160
X10430Y2740
X11000Y3000
X12000
X11510Y2500
X12500
X13000Y3000
X14000
X15000
X15490Y2510
X16460Y2480
X17460Y2460
X18000Y3000
X17520Y3490
X17697Y4255
X16697
X16500Y4500
X16470Y3520
X15530Y3530
X15697Y4255
X15330Y5164
X14760Y5100
X14440Y4684
X14140Y5500
X13698Y5255
X12697
X12500Y4710
X12080Y4720
X12490Y3910
X11510Y3930
X10430Y4580
X10610Y5110
X9840Y6000
X9570Y6970
X9252Y7352
X9700Y8680
X11000Y7780
X11100Y7440
X11600Y7620
X12060Y7370
X12430Y7360
X12159Y6855
X12268Y6296
X12849Y6293
X13183
X13740Y7130
X13720Y8060
X13686Y8490
Y8790
X13716Y9130
X14759Y9079
X15036Y8790
X15026Y8490
X15006Y7570
X15454Y7538
X15650Y7850
X16340
X16045Y7540
X16140Y8450
X17220
X17697Y8255
X17871Y8018
X17423Y7558
X19193
X19546Y7960
X18900Y8580
X17697Y9255
X17723Y5844
X17196
X16890Y5804
X16720Y6450
X16000Y6100
X15264Y6168
X14864
X11690Y5900
X11697Y8255
X12150Y8420
X12630Y8940
X10080Y3550
X9710Y3850
X9250Y3550
X10500Y1500
Y500
X8120Y1350
X5698Y285
X18698
Y1255
X19050Y2570
X19470Y2240
X19698Y4255
X19050Y4470
X18500Y4500
X18950Y6050
X18830Y6430
X19890Y6420
X20370Y6660
X20600Y7000
X20230Y7300
X21100Y8200
X20846Y8510
X20706Y9370
X21697Y9255
X22698
X22100Y8400
X22594Y7710
X22380Y7260
X22710Y6690
X23040Y6740
X23120Y6050
X21970Y5980
X20670Y5840
X20485Y4500
X20698Y4255
X21100Y4310
X21430Y4320
X21530Y4690
X22470Y4610
X23480Y4530
X24550Y4390
X24697Y5255
X24800Y5800
X25698Y6255
X27000Y6350
X27698Y6255
X27590Y5880
X27880Y5490
X28850Y5280
X28840Y5790
X28698Y6255
X28520Y6500
X28090Y6510
X27770Y7340
Y8250
X28073Y8243
X28527Y8227
X28210Y8970
X30030Y8980
X30580Y8960
X30698Y8255
X31050Y8200
X31060Y8560
X31380Y9100
X32210Y8400
X32430Y7760
X33040Y7600
X33000Y8210
X33090Y8850
X33420Y8690
X33640Y7660
X32690Y7050
X32020Y7090
X31750Y6480
X31440Y6370
X31110Y6590
X30698Y6255
X29697
X29870Y5800
X30640Y5310
X30880Y5130
X31240Y5610
X31910Y5210
X32342Y5557
X33250Y5880
X33100Y5020
X32350Y3970
X31930Y3180
X30720Y3200
X30698Y2255
X29830Y2300
X29390Y3060
X28698Y3255
X27880Y2870
X27698Y2255
Y1255
X26697
Y285
X27590Y290
X28698Y285
X29697
X30698
Y1255
X31697Y285
X32698Y835
Y1255
X32320Y1780
X32750Y2340
X33440Y2320
X33568Y1515
X33698Y835
X34700Y890
X34646Y2801
X34697Y3255
X34371Y3919
X33800Y3150
X34960Y5470
X34900Y5900
X34697Y6255
X35310Y6700
X35170Y8450
X34980Y8890
X34310Y9090
X34430Y9370
X31210Y7600
X30890Y7570
X29900Y7680
X27420Y7910
X26950Y7890
X26460Y6940
X24780Y7360
X24190Y6870
X23540Y7180
X23560Y7480
X23900Y8100
X24170Y7840
X25400Y9200
X27250Y4820
X30150Y3970
X25000Y3000
X24000
X23000
X22000
X21000
X20000
X20510Y3870
X20500Y2000
X21440
X22480
X23480
X24510
X25698Y2255
Y1255
Y285
X35700Y890
X36500Y850
X37170Y840
X37510
X37850
X38698Y1255
Y285
X39330Y2330
X40697Y3255
X41698
Y2255
Y1255
Y285
Y4255
X41800Y5470
X41698Y6255
X41460Y7250
X41340Y7770
Y8190
Y8610
Y9030
X41120Y9240
Y8820
Y8400
Y7980
Y7560
X42510Y7680
X42450Y8070
X42430Y8570
X42120Y8450
X42600Y9070
X44456Y9123
X44850
X45244
Y8729
X44850
X44456
X44697Y8255
X44640Y7920
X44200Y7000
X43690Y6780
X42698Y5255
Y3255
X43698
X44697
X45697
Y2255
Y1255
Y285
X47698
X48608Y305
X48698Y1255
Y2255
X49530Y2270
X49490Y3250
X48698Y3255
X48320Y3970
X48430Y5450
X48410Y6700
X48450Y7820
X48340Y8510
X48470Y9080
X47100Y9070
Y8570
X46670Y7960
X45697Y8255
X46500Y9310
X47370Y7140
X45697Y6255
Y5255
X44697
X45697Y4255
X46698Y3255
Y5255
X49660Y5540
X49697Y6255
X49670Y6750
X50697Y6255
Y5255
Y4255
X49697
X50200Y2920
X50697Y3255
Y2255
Y1255
X49697
Y285
X50697Y7255
Y8255
X50030Y8150
X49870Y8550
X49972Y9370
X50697Y9255
X38380Y9180
X38100Y9060
X37800Y9080
X37373Y8940
Y8520
Y8100
Y7680
X37153Y7470
Y7890
Y8310
Y8730
X36610Y8840
X36240Y8100
Y7790
X36610Y7700
X35580Y8700
X37340Y9360
X38800Y7300
X39697Y7255
X39200Y6700
Y5950
X38900Y5850
X39190Y5170
X38698Y4255
X37698
X37270Y3980
X37190Y4760
X37450Y5150
X36680Y5110
X36370Y5080
X36466Y3830
X36050Y3700
X35710Y2980
X37900Y5800
X40030Y3940
X52400Y18250
Y19250
X51698Y19255
X52400Y20250
Y21250
Y22250
Y23250
X51698Y23255
Y24255
X52400Y24250
X50697Y24255
Y22405
X49697
Y23255
X48698
X47698
X46698
X45697
X44697
X44939Y23999
X44697Y24255
X43698
X42698
Y23255
X42130Y23130
X41698Y23255
X41560Y24050
X41250Y22700
X41590Y21400
X42060Y21100
X42070Y20600
X41770Y20590
X40970Y21000
X40600Y21600
X39620Y21800
X38640Y21440
X38340Y21490
X38698Y22255
X37698
X37270Y21700
X36697Y22255
X36300Y23430
X35698Y23255
Y24255
X37698
X38698
X39697
Y23255
X38698
X39330Y20530
X40080Y20560
X40030Y18903
X40310Y18783
X40590Y18663
X40750Y18403
Y18103
X41170Y17980
X41050Y17700
Y17400
X41170Y17120
X41530Y16620
X42427Y16277
X42554Y15947
X42781Y15204
X42334Y14607
X41530Y14940
Y15330
X39430Y15340
X39310Y15060
Y14640
Y14220
Y13800
Y13380
X39530Y13590
Y14010
Y14430
Y14850
X38750Y15520
X38610Y16510
X38490Y17500
X37840Y17510
X37500
X37340Y18480
X36930Y18520
X36570Y18500
X36340Y17500
X36190Y16510
X37040Y16570
X37370Y16400
X37410Y15540
X37890Y14500
X38040Y12510
X37880Y11350
X39020
X39320Y11360
X39410Y11830
X39690Y11710
X39760Y12080
X40270Y12580
X40550Y11710
X40660Y11430
X40370Y11350
X40770Y11930
X40900Y13100
X42013Y13127
X41950Y12740
X42690Y12910
X42394Y13487
X42407Y12251
X42978
X43381Y12301
X44510Y12640
X45470Y12290
X45750Y12520
X45840Y12130
X46060Y11760
X46340Y11640
X47540Y11690
Y11270
Y10850
Y10430
X47760Y10640
Y11060
Y11480
Y11900
Y12320
X47540Y12110
X47130Y12570
Y12940
X47830Y13570
X48150Y13340
X48698Y13255
X49697
Y12255
Y11255
Y10255
X50697
Y11255
Y12255
Y13255
X50166Y14771
X50156Y15499
X50610Y15910
X50697Y16255
X50900Y17000
X49697Y17255
X48698
X48986Y16779
X48698Y16255
X48706Y15499
X48716Y14731
X47909Y14771
X47906Y15510
X47826Y16011
X48017Y16345
X48066Y17034
X47289Y16651
X46541Y16306
X46029Y16956
X46127Y17763
X45608Y17714
X46660Y17860
X46698Y18255
X46100Y18600
X47698Y18255
X48698
X49697Y19255
X48698Y21255
X48400Y21450
X48550Y22300
X47610Y22160
X47348Y21757
X46698Y22255
X45697
X44697
X44858Y21760
X45410Y21430
X46000Y20830
X47368Y20140
X43950Y20850
X43150Y20550
X42900Y20920
X42579Y21250
X42600Y21850
X42698Y22255
X42920Y22620
X43860Y22260
X43710Y23230
X45697Y24255
X46698
X47698
X48698
X48256Y15840
X49697Y16255
X48165Y14013
X46049Y14101
Y14574
Y15046
Y15519
X45576
X45104
X44631
Y15046
X45104
X45576
Y14574
X45104
X44631
Y14101
X45104
X45576
X44611Y16287
X44149Y16429
X43165Y16621
X43360Y18120
X44210Y18160
X44440Y17520
X39310Y18270
X39250Y18620
X38160Y18510
X35900Y15510
X35680Y12500
X35780Y12000
X36450Y12280
X36140Y10210
X35781Y10209
X36190Y9480
X37580Y9550
X37860Y9680
X37827Y9380
X37350Y9970
X41340Y9450
X41700
X42600Y9570
X44456Y9517
Y9911
X44850
X45244
Y9517
X44850
X45950Y9840
X46640Y9910
X47760Y10220
X48710Y10020
X40190Y13970
X34220Y13870
X33090Y14340
X33020Y15770
X32520
X31490Y15750
X31330Y16790
X30910Y17720
X31200Y18160
X31697Y18255
X31970Y17580
X32910Y17480
X32698Y18255
X33150Y18260
X35290Y18450
X34850Y20820
X34400Y21380
X34000Y22000
X33000
X32000
X31500Y21750
X31000Y22000
X30000
X29000
X28000
X27500Y21750
X27000Y22000
X27500Y23000
X28500
X29500
X30500
X31500
X32500
X32520Y21204
X30500Y21250
X29500
X28500
X25698Y21255
Y22255
X25000Y22000
X24000
X23000
X22000
X21000
X20000
X20500Y23000
X21500
X22500
X23500
X24500
X25698Y23255
Y24255
X24500Y21000
X23500
X22500
X21500
X20500
X21030Y18644
X21930Y18440
X21430Y17900
X21276Y17622
X21360Y16780
X20970Y16950
X20553Y17010
X20570Y16610
X21696Y16382
X21910Y17320
X22610Y17330
X24060Y16820
X24450Y16510
X24410Y17510
X24050Y18000
X25480Y17780
X25698Y17255
X26697
X27698
X27790Y17700
X27250Y18560
X28910Y18600
X28698Y18255
X30040Y18600
X30698Y18255
X30170Y15800
X28340Y15910
X27698Y16255
Y15255
X28610Y14850
X28400Y14630
X28190Y14410
X27980Y14190
X27910Y13480
X27920Y12670
X27950Y11590
X28040Y10630
X28200Y10300
X28950Y10190
X29697Y10255
Y11255
X30698
X31030Y11780
X31600Y10960
X32250Y10900
X32810Y10900
X33240Y11100
X33650Y11060
X35150Y11050
X35030Y10770
X34910Y10490
X34790Y10210
X34670Y9930
X34550Y9650
X35400Y11710
X35270Y12010
X32990Y12580
X32490Y12560
X32030Y12580
X30000Y12780
X29100Y12560
X29080Y11680
X29050Y14120
X29490
X31000Y14240
X30698Y10255
X31100Y9920
X26697Y10255
X25698
X25767Y10603
X25990Y11500
X27020Y11050
X26990Y12394
X26662Y13502
X26110Y13450
X24800Y13470
X24270Y13490
X23698Y13255
Y12255
Y11255
X24250Y11450
X23890Y10440
X24304Y10116
X24516Y9904
X24728Y9692
X24941Y9479
X23040Y9714
X22600Y9900
X21467Y10004
X21056Y10020
X21256Y11273
X21697Y11255
X21770Y11589
X21770Y10810
X20696Y11610
X20506Y12630
X20420Y13350
X21300Y13620
X22030Y13310
X22240Y12540
X21530Y12670
X20840Y14200
X20300Y14550
X19900Y14600
X21657Y15180
X22830Y15270
X22990Y14510
X22330Y14240
X23698Y14255
X24250Y14500
X24800Y14470
X23880Y15340
X23910Y15730
X26677Y14634
X28750Y16500
X25630Y18980
X25290Y18940
X24830Y19000
X19880Y18620
X24677Y12404
X33860Y20090
X34500Y22750
X34697Y23255
Y24255
X19500Y23000
X18500
X19000Y22000
X18000
X18500Y21500
X17500Y21200
X16800
X15900Y21000
X14900
X13900
X12900
X11900
X10900
X9900
X8900
X7900
X7340Y20790
X6726Y20752
X6430Y20910
X5760Y20780
X4420Y21800
X4460Y22290
X4900Y23080
X4570Y23540
X4697Y24255
X5698
Y23255
X6697
X6910Y23000
X7900
X8900
X9900
X10900
X11900Y23000
X12900Y23000
X13900
X14900
X15900
X15400Y22000
X14400
X13400
X12400
X11400
X10400Y22004
X9400Y22000
X8400
X7400
X7870Y20120
X7900Y18500
X8400Y18000
X7400Y18000
X7010Y17810
X7880Y17160
X7840Y16290
X7180Y15890
X7340Y15200
X7750Y15170
X7140Y14630
X6310Y14550
X5930Y15480
X6160Y16340
X5680
X6660Y16360
X8990Y16140
X9680Y16720
X10210Y16780
X10940Y16160
X11600Y15829
X12100Y15550
X11900Y14600
X11440Y14680
X13066Y14390
X13346Y14940
X13698Y15255
X14698
X14476Y14790
X14550Y14140
X14920Y13710
X15400Y13900
X16220Y14050
X16110Y14380
X15670Y14620
X16290Y15190
X16320Y15490
X17020Y14810
X17570Y15010
X17700Y14530
X18080Y14540
X18896Y14600
X19416Y14610
X18860Y13790
X17600Y14043
X17270
X17576Y13470
X17606Y12470
X16970Y12470
X16650Y12030
X16680Y11660
X17000Y11730
X16400Y12220
X16210Y12460
X15790Y12030
X15176Y11646
Y11307
X15520Y11240
X16020Y9910
X16100Y9560
X15290Y9380
X14970Y9640
X14770Y9890
X13336Y9890
X13296Y10500
X13286Y10865
X13346Y11210
X12726Y10930
X12910Y10210
X12910Y9430
X12180Y9520
X12190Y10480
X11570Y10750
X11390Y11180
X11140Y11737
X10650Y11650
X10315Y11695
X10220Y12230
X9800Y12140
X9360
X8240Y12180
X8350Y11750
X8460Y10980
X9960Y10750
X10480Y10760
X10340Y10310
X10200Y9410
X8850Y9490
X7960Y9460
X5020Y9660
X4670
X4650Y10990
X5060
X5296Y11670
X4326Y11795
X4216Y11080
X6340Y11790
X6300Y12360
X6697Y12255
X4500Y14500
X4697Y15255
X4860Y18900
X5730Y18420
X6400Y18730
X8880Y18720
X9900Y18800
X10900Y18790
X11910Y18840
X12900Y18810
X13890Y18800
X13400Y18000
X14400
X15400
X16400
X17400
X18400Y18000
X19000Y17600
X19740Y17410
X19640Y17080
X19320Y18282
X19290Y18620
X18860Y18820
X17880Y18920
X18080Y19700
X17250Y19710
X16700Y19680
X16920Y18800
X16890Y17280
X17900Y17100
X18030Y15670
X19690Y12000
X19250Y11500
X19708Y10787
X19666Y9710
X19000Y9500
X18601Y10728
X17911Y10168
X17220Y9500
X12876Y12110
X12320Y12350
X12110Y12010
X11650Y12400
X11940Y16780
X11920Y17150
X12910Y17160
X13900Y17180
X12400Y18000
X11400Y18000
X10400
X9400
X8950Y17440
X8940Y14760
X6697Y24255
X17210Y24580
X17210Y22760
X16400Y22000
X19500Y21000
X3560Y20880
X3260Y21150
X3370Y21460
X3010Y21750
X2697Y21255
X1698
X698
Y20255
Y19255
Y18255
Y17255
X500Y16500
X1000Y16020
X1698Y16255
X2320Y17350
X2697Y18255
X1698
Y19255
Y20255
X2697Y19255
X3570Y16450
X3370Y15434
X2760Y15190
X3210Y14500
X2790Y13554
X3700Y13504
X3140Y11780
X2446Y11870
X2670Y11360
X1360Y11844
Y12754
X1100Y14320
X698Y14255
X500Y14500
X280Y15000
X570Y15430
X1590Y10630
X1770Y9540
X1380Y22140
Y22640
Y23140
X1520Y23670
X1380Y24140
X1680
X2550Y24710
X3880Y24570
X3697Y24255
X3650Y23600
X2940Y23240
X3780Y22450
X350Y24720
T04
X3220Y4490
Y5490
X11000Y1500
X12000
X13000
Y500
X12000
X11000
X14000
X15000
Y1500
X14000
X16000
Y500
X17000
X18000
Y1500
X17000
X12000Y9000
X20000Y1500
Y500
X21000
Y1500
X22000
X23000
Y500
X22000
X24000
X25000
Y1500
X24000
Y23500
X23000
Y24500
X24000
X25000
Y23500
X27000
Y24500
X28000
X29000
X30000
Y23500
X31000
X32000
Y24500
X33000
Y23500
X34000
Y24500
X31000
X29000Y23500
X28000
X22000
X21000
Y24500
X22000
X20000
Y23500
X19000
X18000
Y24500
X19000
X16400
Y23500
X15400
Y24500
X14400
X13400
Y23500
X14400
X12400
X11400
X10400
Y24500
X11400
X12400
X9400
X8400
X7400
Y23500
X8400
X9400
X12000Y11000
Y10000
T05
X26750Y2250
X49250Y24000
T06
X23500Y15500
X23900Y18500
X23100
T07
X2880Y7590
Y16929
Y20157
T08
X5500Y3000
X26000Y5000
X38000Y3000
X35500Y22000
X50500Y18250
X26000Y16000
X6000Y22000
M30
