G04*
G04 #@! TF.GenerationSoftware,Altium Limited,Altium Designer,18.0.11 (651)*
G04*
G04 Layer_Color=32896*
%FSLAX24Y24*%
%MOIN*%
G70*
G01*
G75*
%ADD19C,0.0080*%
%ADD189C,0.0065*%
%ADD206C,0.0300*%
D19*
X35433Y5717D02*
X35527D01*
X35621Y5811D01*
Y5906D01*
X35433Y6094D01*
X35339D01*
X35244Y6000D01*
Y5906D01*
X35292Y5859D01*
X35386D01*
X35527Y6000D01*
Y6188D02*
Y6283D01*
X35621Y6377D01*
X35716D01*
X35904Y6188D01*
Y6094D01*
X35810Y6000D01*
X35716D01*
X35527Y6188D01*
X36093Y6283D02*
X36187Y6377D01*
Y6471D01*
X36093Y6565D01*
X35998D01*
X35904Y6471D01*
Y6377D01*
X35998Y6283D01*
X36093D01*
X36045Y6801D02*
X36328Y6518D01*
X36187Y6660D01*
Y6754D01*
X36281Y6848D01*
X36375D01*
X36517Y6707D01*
X36611Y6801D02*
X36423Y6990D01*
X36470Y7037D01*
X36564D01*
X36705Y6895D01*
X36564Y7037D01*
Y7131D01*
X36658D01*
X36800Y6990D01*
X37082Y7838D02*
X37365Y7555D01*
X37224Y7414D01*
X37129D01*
X37035Y7508D01*
Y7602D01*
X37177Y7744D01*
X37459Y7649D02*
X37554Y7744D01*
X37506Y7696D01*
X37318Y7885D01*
X37271Y7838D01*
X37742Y7932D02*
X37506Y8168D01*
X37601Y8073D01*
X37554Y8026D01*
X37648Y8121D01*
X37601Y8073D01*
X37506Y8168D01*
Y8262D01*
X37978Y8168D02*
X37742Y8403D01*
X37836Y8309D01*
X37789Y8262D01*
X37883Y8356D01*
X37836Y8309D01*
X37742Y8403D01*
Y8498D01*
X38308D02*
X38213Y8403D01*
X38119D01*
X38025Y8498D01*
Y8592D01*
X38119Y8686D01*
X38213D01*
X38260Y8639D01*
X38072Y8450D01*
X38260Y8827D02*
X38449Y8639D01*
X38355Y8733D01*
Y8827D01*
Y8922D01*
X38402Y8969D01*
X38873Y9063D02*
X38779Y8969D01*
X38685D01*
X38590Y9063D01*
Y9157D01*
X38685Y9252D01*
X38779D01*
X38826Y9204D01*
X38637Y9016D01*
X39014Y9204D02*
X38826Y9393D01*
X38967Y9534D01*
X39062D01*
X39203Y9393D01*
X39297Y9487D02*
X39439Y9629D01*
Y9723D01*
X39344D01*
X39250Y9629D01*
X39156D01*
Y9723D01*
X39297Y9864D01*
X39580Y9770D02*
X39674Y9864D01*
X39627Y9817D01*
X39439Y10006D01*
X39391Y9958D01*
X39674Y10241D02*
X39768Y10335D01*
X39863D01*
X40004Y10194D01*
X39863Y10053D01*
X39768D01*
Y10147D01*
X39910Y10288D01*
X40098Y10288D02*
X40193Y10383D01*
X40145Y10335D01*
X39863Y10618D01*
X39816Y10571D01*
X40617Y10807D02*
X40711Y10901D01*
X40664Y10854D01*
X40475Y11042D01*
X40428Y10995D01*
X40852Y11042D02*
X40664Y11231D01*
X40711Y11278D01*
X40805D01*
X40947Y11137D01*
X40805Y11278D01*
Y11372D01*
X40899D01*
X41041Y11231D01*
X41229D02*
X40947Y11514D01*
X41088Y11655D01*
X41182D01*
X41276Y11561D01*
Y11466D01*
X41135Y11325D01*
X41559Y11749D02*
X41465Y11655D01*
X41371D01*
X41276Y11749D01*
Y11843D01*
X41371Y11938D01*
X41465D01*
X41512Y11891D01*
X41324Y11702D01*
X41606Y12362D02*
X41889Y12079D01*
X41748Y11938D01*
X41653D01*
X41559Y12032D01*
Y12126D01*
X41701Y12268D01*
X41842Y12409D02*
X41936Y12503D01*
X42030D01*
X42172Y12362D01*
X42030Y12220D01*
X41936D01*
Y12315D01*
X42078Y12456D01*
X42266Y12456D02*
X42078Y12645D01*
X42219Y12786D01*
X42313D01*
X42455Y12645D01*
X42549Y13116D02*
X42407Y12974D01*
Y12880D01*
X42502Y12786D01*
X42596D01*
X42737Y12927D01*
X42973Y13163D02*
X42879Y13069D01*
X42784D01*
X42690Y13163D01*
Y13257D01*
X42784Y13351D01*
X42879D01*
X42926Y13304D01*
X42737Y13116D01*
X2920Y13997D02*
X2987Y13930D01*
X3120D01*
X3187Y13997D01*
Y14263D01*
X3120Y14330D01*
X2987D01*
X2920Y14263D01*
Y14197D01*
X2987Y14130D01*
X3187D01*
X3320Y14263D02*
X3387Y14330D01*
X3520D01*
X3586Y14263D01*
Y13997D01*
X3520Y13930D01*
X3387D01*
X3320Y13997D01*
Y14263D01*
X3786Y13930D02*
X3920D01*
X3986Y13997D01*
Y14130D01*
X3920Y14197D01*
X3786D01*
X3720Y14130D01*
Y13997D01*
X3786Y13930D01*
X4120Y14330D02*
Y13930D01*
Y14130D01*
X4186Y14197D01*
X4320D01*
X4386Y14130D01*
Y13930D01*
X4519D02*
Y14197D01*
X4586D01*
X4653Y14130D01*
Y13930D01*
Y14130D01*
X4719Y14197D01*
X4786Y14130D01*
Y13930D01*
X5586Y14330D02*
Y13930D01*
X5386D01*
X5319Y13997D01*
Y14130D01*
X5386Y14197D01*
X5586D01*
X5719Y13930D02*
X5852D01*
X5786D01*
Y14197D01*
X5719D01*
X6119Y13930D02*
Y14263D01*
Y14130D01*
X6052D01*
X6186D01*
X6119D01*
Y14263D01*
X6186Y14330D01*
X6452Y13930D02*
Y14263D01*
Y14130D01*
X6386D01*
X6519D01*
X6452D01*
Y14263D01*
X6519Y14330D01*
X6919Y13930D02*
X6785D01*
X6719Y13997D01*
Y14130D01*
X6785Y14197D01*
X6919D01*
X6985Y14130D01*
Y14063D01*
X6719D01*
X7119Y14197D02*
Y13930D01*
Y14063D01*
X7185Y14130D01*
X7252Y14197D01*
X7319D01*
X7718Y13930D02*
X7585D01*
X7519Y13997D01*
Y14130D01*
X7585Y14197D01*
X7718D01*
X7785Y14130D01*
Y14063D01*
X7519D01*
X7918Y13930D02*
Y14197D01*
X8118D01*
X8185Y14130D01*
Y13930D01*
X8318D02*
X8518D01*
X8585Y13997D01*
X8518Y14063D01*
X8385D01*
X8318Y14130D01*
X8385Y14197D01*
X8585D01*
X8718Y13930D02*
X8851D01*
X8785D01*
Y14197D01*
X8718D01*
X9118D02*
X9251D01*
X9318Y14130D01*
Y13930D01*
X9118D01*
X9051Y13997D01*
X9118Y14063D01*
X9318D01*
X9451Y13930D02*
X9585D01*
X9518D01*
Y14330D01*
X9451D01*
X10184Y13930D02*
X10318D01*
X10251D01*
Y14197D01*
X10184D01*
X10518Y13930D02*
Y14197D01*
X10584D01*
X10651Y14130D01*
Y13930D01*
Y14130D01*
X10717Y14197D01*
X10784Y14130D01*
Y13930D01*
X10917Y13797D02*
Y14197D01*
X11117D01*
X11184Y14130D01*
Y13997D01*
X11117Y13930D01*
X10917D01*
X11517D02*
X11384D01*
X11317Y13997D01*
Y14130D01*
X11384Y14197D01*
X11517D01*
X11584Y14130D01*
Y14063D01*
X11317D01*
X11984Y14330D02*
Y13930D01*
X11784D01*
X11717Y13997D01*
Y14130D01*
X11784Y14197D01*
X11984D01*
X12184D02*
X12317D01*
X12384Y14130D01*
Y13930D01*
X12184D01*
X12117Y13997D01*
X12184Y14063D01*
X12384D01*
X12517Y13930D02*
Y14197D01*
X12717D01*
X12783Y14130D01*
Y13930D01*
X13183Y14197D02*
X12983D01*
X12917Y14130D01*
Y13997D01*
X12983Y13930D01*
X13183D01*
X13517D02*
X13383D01*
X13317Y13997D01*
Y14130D01*
X13383Y14197D01*
X13517D01*
X13583Y14130D01*
Y14063D01*
X13317D01*
X45867Y15900D02*
X45600D01*
Y15700D01*
X45733Y15767D01*
X45800D01*
X45867Y15700D01*
Y15567D01*
X45800Y15500D01*
X45667D01*
X45600Y15567D01*
X46000Y15833D02*
X46067Y15900D01*
X46200D01*
X46266Y15833D01*
Y15567D01*
X46200Y15500D01*
X46067D01*
X46000Y15567D01*
Y15833D01*
X46466Y15500D02*
X46600D01*
X46666Y15567D01*
Y15700D01*
X46600Y15767D01*
X46466D01*
X46400Y15700D01*
Y15567D01*
X46466Y15500D01*
X46800Y15900D02*
Y15500D01*
Y15700D01*
X46866Y15767D01*
X47000D01*
X47066Y15700D01*
Y15500D01*
X47199D02*
Y15767D01*
X47266D01*
X47333Y15700D01*
Y15500D01*
Y15700D01*
X47399Y15767D01*
X47466Y15700D01*
Y15500D01*
X47999D02*
X48133D01*
X48066D01*
Y15767D01*
X47999D01*
X48332Y15500D02*
Y15767D01*
X48399D01*
X48466Y15700D01*
Y15500D01*
Y15700D01*
X48532Y15767D01*
X48599Y15700D01*
Y15500D01*
X48732Y15367D02*
Y15767D01*
X48932D01*
X48999Y15700D01*
Y15567D01*
X48932Y15500D01*
X48732D01*
X49332D02*
X49199D01*
X49132Y15567D01*
Y15700D01*
X49199Y15767D01*
X49332D01*
X49399Y15700D01*
Y15633D01*
X49132D01*
X49799Y15900D02*
Y15500D01*
X49599D01*
X49532Y15567D01*
Y15700D01*
X49599Y15767D01*
X49799D01*
X49999D02*
X50132D01*
X50199Y15700D01*
Y15500D01*
X49999D01*
X49932Y15567D01*
X49999Y15633D01*
X50199D01*
X50332Y15500D02*
Y15767D01*
X50532D01*
X50598Y15700D01*
Y15500D01*
X50998Y15767D02*
X50798D01*
X50732Y15700D01*
Y15567D01*
X50798Y15500D01*
X50998D01*
X51331D02*
X51198D01*
X51132Y15567D01*
Y15700D01*
X51198Y15767D01*
X51331D01*
X51398Y15700D01*
Y15633D01*
X51132D01*
D189*
X6324Y13316D02*
G03*
X5946Y13159I0J-535D01*
G01*
X6328Y13457D02*
G03*
X5841Y13255I0J-688D01*
G01*
X5178Y12700D02*
G03*
X5366Y12778I0J266D01*
G01*
X5176Y12560D02*
G03*
X5466Y12680I0J410D01*
G01*
X3916Y12524D02*
G03*
X3830Y12560I-86J-86D01*
G01*
X3949Y12491D02*
G03*
X4160Y12404I211J211D01*
G01*
D02*
G03*
X4370Y12490I0J297D01*
G01*
X4490Y12560D02*
G03*
X4403Y12524I0J-123D01*
G01*
X4530Y12700D02*
G03*
X4617Y12736I0J123D01*
G01*
X4860Y12856D02*
G03*
X4650Y12769I0J-297D01*
G01*
X5071Y12769D02*
G03*
X4860Y12856I-211J-211D01*
G01*
X5104Y12736D02*
G03*
X5190Y12700I86J86D01*
G01*
X35960Y5640D02*
G03*
X35135Y4815I0J-825D01*
G01*
X35960Y5640D02*
G03*
X36540Y5880I0J821D01*
G01*
X35960Y5500D02*
G03*
X35276Y4816I0J-684D01*
G01*
X35960Y5500D02*
G03*
X36641Y5782I0J964D01*
G01*
X37400Y6742D02*
G03*
X37088Y6430I80J-392D01*
G01*
X36820Y5960D02*
G03*
X37120Y6260I-90J390D01*
G01*
X42573Y11441D02*
G03*
X41767Y11107I0J-1141D01*
G01*
X42573Y11300D02*
G03*
X41866Y11007I0J-1000D01*
G01*
X44604Y11300D02*
G03*
X44995Y11690I0J390D01*
G01*
X44604Y11441D02*
G03*
X44854Y11690I0J249D01*
G01*
X44854Y12782D02*
G03*
X44780Y12960I-251J0D01*
G01*
X44620Y13410D02*
G03*
X44684Y13255I219J0D01*
G01*
X44995Y12782D02*
G03*
X44880Y13060I-392J0D01*
G01*
X44479Y13410D02*
G03*
X44584Y13156I360J0D01*
G01*
X3367Y12700D02*
X4530D01*
X6324Y13457D02*
X13546D01*
X5466Y12680D02*
X5950Y13163D01*
X6324Y13316D02*
X13546D01*
X5366Y12778D02*
X5842Y13254D01*
X3916Y12524D02*
X3949Y12491D01*
X3367Y12560D02*
X3830D01*
X4490D02*
X5176D01*
X4370Y12490D02*
X4403Y12524D01*
X4617Y12736D02*
X4650Y12769D01*
X5071Y12769D02*
X5104Y12736D01*
X35135Y4212D02*
Y4815D01*
X36540Y5880D02*
X37080Y6420D01*
X35276Y4211D02*
Y4816D01*
X37120Y6260D02*
X41866Y11007D01*
X37401Y6741D02*
X41767Y11107D01*
X36641Y5782D02*
X36820Y5960D01*
X44995Y11690D02*
Y11820D01*
X44854Y11690D02*
Y11820D01*
X42573Y11300D02*
X44604D01*
X42573Y11441D02*
X44604D01*
X44481Y13410D02*
Y13503D01*
X44584Y13156D02*
X44780Y12960D01*
X44854Y12600D02*
Y12782D01*
X44620Y13410D02*
Y13499D01*
X44684Y13255D02*
X44880Y13060D01*
X44995Y12600D02*
Y12782D01*
D206*
X47906Y15110D02*
X49705D01*
M02*
