G04*
G04 #@! TF.GenerationSoftware,Altium Limited,Altium Designer,18.0.11 (651)*
G04*
G04 Layer_Color=8388736*
%FSLAX24Y24*%
%MOIN*%
G70*
G01*
G75*
%ADD108C,0.0240*%
%ADD109R,0.0532X0.0493*%
%ADD110C,0.0454*%
%ADD111R,0.0296X0.0257*%
%ADD112R,0.0296X0.0277*%
%ADD113R,0.0355X0.0375*%
%ADD114R,0.0277X0.0296*%
%ADD115R,0.0257X0.0316*%
%ADD116R,0.0257X0.0296*%
%ADD117C,0.0139*%
%ADD118R,0.0690X0.1044*%
%ADD119R,0.0232X0.0154*%
%ADD120R,0.0232X0.0242*%
%ADD121R,0.0237X0.0198*%
%ADD122R,0.0237X0.0158*%
%ADD123R,0.0414X0.0769*%
%ADD124R,0.0611X0.0296*%
%ADD125R,0.0729X0.0296*%
%ADD126O,0.0710X0.0178*%
%ADD127O,0.0178X0.0710*%
%ADD128R,0.1123X0.0375*%
%ADD129R,0.0375X0.0355*%
%ADD130R,0.0493X0.0611*%
%ADD131R,0.0395X0.0454*%
%ADD132R,0.0395X0.0296*%
%ADD133R,0.0454X0.0395*%
%ADD134R,0.0296X0.0395*%
%ADD135R,0.0158X0.0202*%
%ADD136R,0.1060X0.1111*%
%ADD137R,0.0560X0.0360*%
%ADD138R,0.0316X0.0257*%
%ADD139C,0.0787*%
%ADD140R,0.0288X0.0257*%
%ADD141R,0.0375X0.0355*%
%ADD142R,0.0611X0.0690*%
%ADD143R,0.0670X0.0808*%
%ADD144R,0.0592X0.0217*%
%ADD145R,0.0690X0.0611*%
%ADD146R,0.0808X0.0670*%
%ADD147R,0.0217X0.0592*%
%ADD148C,0.0370*%
%ADD149R,0.0296X0.1084*%
%ADD150R,0.0178X0.0375*%
%ADD151R,0.0670X0.0296*%
%ADD152R,0.0769X0.0532*%
%ADD153R,0.0360X0.0380*%
%ADD154R,0.0316X0.0395*%
%ADD155R,0.0462X0.0922*%
%ADD156R,0.1560X0.0560*%
%ADD157R,0.0359X0.1005*%
%ADD158R,0.1005X0.0359*%
%ADD159R,0.1312X0.0560*%
%ADD160R,0.0414X0.0198*%
%ADD161R,0.0217X0.0336*%
%ADD162R,0.0217X0.0158*%
%ADD163R,0.0336X0.0217*%
%ADD164R,0.0158X0.0217*%
%ADD165R,0.1143X0.0611*%
%ADD166R,0.0532X0.0847*%
%ADD167R,0.0454X0.0690*%
%ADD168R,0.0532X0.0690*%
%ADD169C,0.0148*%
%ADD170R,0.1949X0.1949*%
%ADD171R,0.1399X0.1635*%
%ADD172R,0.0513X0.0237*%
%ADD173C,0.0134*%
%ADD174O,0.0305X0.0136*%
%ADD175O,0.0136X0.0305*%
%ADD176O,0.0611X0.0237*%
%ADD177R,0.0296X0.0454*%
%ADD178R,0.0454X0.0296*%
%ADD179R,0.0434X0.0395*%
%ADD180R,0.0454X0.0769*%
%ADD181C,0.0651*%
%ADD182C,0.1320*%
%ADD183R,0.0651X0.0651*%
%ADD184R,0.0651X0.0651*%
%ADD185O,0.0690X0.0414*%
%ADD186O,0.0414X0.0690*%
%ADD187C,0.0761*%
%ADD188C,0.0300*%
G36*
X11083Y8804D02*
X11088Y8803D01*
X11092Y8801D01*
X11096Y8798D01*
X11100Y8795D01*
X11356Y8539D01*
X11359Y8536D01*
X11361Y8532D01*
X11363Y8527D01*
X11364Y8523D01*
X11364Y8518D01*
Y8282D01*
X11364Y8277D01*
X11363Y8273D01*
X11361Y8268D01*
X11359Y8264D01*
X11356Y8261D01*
X11100Y8005D01*
X11096Y8002D01*
X11092Y7999D01*
X11088Y7997D01*
X11083Y7996D01*
X11078Y7996D01*
X10291D01*
X10286Y7996D01*
X10282Y7997D01*
X10277Y7999D01*
X10273Y8002D01*
X10270Y8005D01*
X10014Y8261D01*
X10011Y8264D01*
X10008Y8268D01*
X10006Y8273D01*
X10005Y8277D01*
X10005Y8282D01*
Y8518D01*
X10005Y8523D01*
X10006Y8527D01*
X10008Y8532D01*
X10011Y8536D01*
X10014Y8539D01*
X10270Y8795D01*
X10273Y8798D01*
X10277Y8801D01*
X10282Y8803D01*
X10286Y8804D01*
X10291Y8804D01*
X11078D01*
X11083Y8804D01*
D02*
G37*
D108*
X34710Y8011D02*
G03*
X34710Y8011I-110J0D01*
G01*
Y7989D02*
G03*
X34710Y7989I-110J0D01*
G01*
X42010Y17349D02*
G03*
X42010Y17349I-110J0D01*
G01*
Y17371D02*
G03*
X42010Y17371I-110J0D01*
G01*
X42860Y17349D02*
G03*
X42860Y17349I-110J0D01*
G01*
Y17371D02*
G03*
X42860Y17371I-110J0D01*
G01*
X42010Y17899D02*
G03*
X42010Y17899I-110J0D01*
G01*
X42860D02*
G03*
X42860Y17899I-110J0D01*
G01*
X42949Y9070D02*
G03*
X42949Y9070I-110J0D01*
G01*
X42971D02*
G03*
X42971Y9070I-110J0D01*
G01*
X42949Y9570D02*
G03*
X42949Y9570I-110J0D01*
G01*
X42971D02*
G03*
X42971Y9570I-110J0D01*
G01*
X42949Y10070D02*
G03*
X42949Y10070I-110J0D01*
G01*
X42971D02*
G03*
X42971Y10070I-110J0D01*
G01*
X46971Y8570D02*
G03*
X46971Y8570I-110J0D01*
G01*
X46949D02*
G03*
X46949Y8570I-110J0D01*
G01*
X46971Y9070D02*
G03*
X46971Y9070I-110J0D01*
G01*
X46949D02*
G03*
X46949Y9070I-110J0D01*
G01*
X46971Y9570D02*
G03*
X46971Y9570I-110J0D01*
G01*
X46949D02*
G03*
X46949Y9570I-110J0D01*
G01*
X42949Y8570D02*
G03*
X42949Y8570I-110J0D01*
G01*
X42971D02*
G03*
X42971Y8570I-110J0D01*
G01*
X42959Y8070D02*
G03*
X42959Y8070I-110J0D01*
G01*
Y7570D02*
G03*
X42959Y7570I-110J0D01*
G01*
X42461Y9070D02*
G03*
X42461Y9070I-110J0D01*
G01*
Y9570D02*
G03*
X42461Y9570I-110J0D01*
G01*
Y10070D02*
G03*
X42461Y10070I-110J0D01*
G01*
X47459Y8570D02*
G03*
X47459Y8570I-110J0D01*
G01*
Y9070D02*
G03*
X47459Y9070I-110J0D01*
G01*
Y9570D02*
G03*
X47459Y9570I-110J0D01*
G01*
X21881Y11951D02*
G03*
X21881Y11951I-110J0D01*
G01*
X37000Y23649D02*
G03*
X37000Y23649I-110J0D01*
G01*
X26711Y11000D02*
G03*
X26711Y11000I-110J0D01*
G01*
X26121D02*
G03*
X26121Y11000I-110J0D01*
G01*
X26099D02*
G03*
X26099Y11000I-110J0D01*
G01*
X6692Y5900D02*
G03*
X6692Y5900I-110J0D01*
G01*
X6691Y5400D02*
G03*
X6691Y5400I-110J0D01*
G01*
X6692Y4900D02*
G03*
X6692Y4900I-110J0D01*
G01*
X11979Y6296D02*
G03*
X11979Y6296I-110J0D01*
G01*
X19160Y4219D02*
G03*
X19160Y4219I-110J0D01*
G01*
Y4241D02*
G03*
X19160Y4241I-110J0D01*
G01*
X9780Y6571D02*
G03*
X9780Y6571I-110J0D01*
G01*
X5980Y16950D02*
G03*
X5980Y16950I-110J0D01*
G01*
Y16928D02*
G03*
X5980Y16928I-110J0D01*
G01*
Y20141D02*
G03*
X5980Y20141I-110J0D01*
G01*
Y20119D02*
G03*
X5980Y20119I-110J0D01*
G01*
X32109Y6600D02*
G03*
X32109Y6600I-110J0D01*
G01*
X35310Y7999D02*
G03*
X35310Y7999I-110J0D01*
G01*
X34110D02*
G03*
X34110Y7999I-110J0D01*
G01*
X32111Y6000D02*
G03*
X32111Y6000I-110J0D01*
G01*
X3501Y24570D02*
G03*
X3501Y24570I-110J0D01*
G01*
X11630Y11861D02*
G03*
X11630Y11861I-110J0D01*
G01*
X12350D02*
G03*
X12350Y11861I-110J0D01*
G01*
X30391Y5130D02*
G03*
X30391Y5130I-110J0D01*
G01*
X30369D02*
G03*
X30369Y5130I-110J0D01*
G01*
X34360Y4941D02*
G03*
X34360Y4941I-110J0D01*
G01*
X19741Y15710D02*
G03*
X19741Y15710I-110J0D01*
G01*
X48062Y21897D02*
G03*
X48062Y21897I-110J0D01*
G01*
X48074Y19657D02*
G03*
X48074Y19657I-110J0D01*
G01*
X48052D02*
G03*
X48052Y19657I-110J0D01*
G01*
X48074Y20217D02*
G03*
X48074Y20217I-110J0D01*
G01*
X48052D02*
G03*
X48052Y20217I-110J0D01*
G01*
X48074Y20777D02*
G03*
X48074Y20777I-110J0D01*
G01*
X48052D02*
G03*
X48052Y20777I-110J0D01*
G01*
X48074Y21337D02*
G03*
X48074Y21337I-110J0D01*
G01*
X48052D02*
G03*
X48052Y21337I-110J0D01*
G01*
X28239Y7340D02*
G03*
X28239Y7340I-110J0D01*
G01*
X28261D02*
G03*
X28261Y7340I-110J0D01*
G01*
X29481Y6970D02*
G03*
X29481Y6970I-110J0D01*
G01*
X29459D02*
G03*
X29459Y6970I-110J0D01*
G01*
X24211Y6330D02*
G03*
X24211Y6330I-110J0D01*
G01*
X24189D02*
G03*
X24189Y6330I-110J0D01*
G01*
X24491Y7470D02*
G03*
X24491Y7470I-110J0D01*
G01*
X24469D02*
G03*
X24469Y7470I-110J0D01*
G01*
X22829Y7980D02*
G03*
X22829Y7980I-110J0D01*
G01*
X22851D02*
G03*
X22851Y7980I-110J0D01*
G01*
X22829Y7140D02*
G03*
X22829Y7140I-110J0D01*
G01*
X22851D02*
G03*
X22851Y7140I-110J0D01*
G01*
X28759Y8520D02*
G03*
X28759Y8520I-110J0D01*
G01*
X28781D02*
G03*
X28781Y8520I-110J0D01*
G01*
X29759D02*
G03*
X29759Y8520I-110J0D01*
G01*
X29781D02*
G03*
X29781Y8520I-110J0D01*
G01*
X29621Y17000D02*
G03*
X29621Y17000I-110J0D01*
G01*
X29599D02*
G03*
X29599Y17000I-110J0D01*
G01*
X29611Y16250D02*
G03*
X29611Y16250I-110J0D01*
G01*
X9931Y2640D02*
G03*
X9931Y2640I-110J0D01*
G01*
X9909D02*
G03*
X9909Y2640I-110J0D01*
G01*
D109*
X14946Y14109D02*
D03*
Y14811D02*
D03*
X14006Y14109D02*
D03*
Y14811D02*
D03*
D110*
X27250Y15000D02*
D03*
Y15750D02*
D03*
X4250Y18050D02*
D03*
Y19050D02*
D03*
X25900Y7500D02*
D03*
X25900Y8500D02*
D03*
X26900Y7500D02*
D03*
Y8500D02*
D03*
X21000Y6500D02*
D03*
X22000D02*
D03*
X21000Y7500D02*
D03*
X22000D02*
D03*
X4860Y12559D02*
D03*
X4160Y12700D02*
D03*
X4000Y14000D02*
D03*
Y15000D02*
D03*
X48600Y7250D02*
D03*
X49600D02*
D03*
X8500Y12200D02*
D03*
X24600Y11000D02*
D03*
X11240Y5920D02*
D03*
X30400Y17000D02*
D03*
X42430Y19020D02*
D03*
X5050Y6500D02*
D03*
X34000Y6000D02*
D03*
X500Y15000D02*
D03*
X12400Y14700D02*
D03*
X11300Y7000D02*
D03*
X8500Y11500D02*
D03*
X40700Y7600D02*
D03*
Y8350D02*
D03*
X24300Y15600D02*
D03*
X28250Y6000D02*
D03*
X8800Y6450D02*
D03*
X5810Y8930D02*
D03*
X39250Y10900D02*
D03*
Y10150D02*
D03*
X38500Y10900D02*
D03*
Y10150D02*
D03*
X37750Y10900D02*
D03*
Y10150D02*
D03*
D111*
X7707Y6760D02*
D03*
X7313D02*
D03*
X44607Y16710D02*
D03*
X44213D02*
D03*
X43238Y15927D02*
D03*
X42844D02*
D03*
X47466Y14023D02*
D03*
X47860D02*
D03*
X46216Y16601D02*
D03*
X46610D02*
D03*
X42637Y14587D02*
D03*
X43031D02*
D03*
X15253Y6440D02*
D03*
X14859D02*
D03*
X15179Y13580D02*
D03*
X15573D02*
D03*
X16043Y6450D02*
D03*
X16437D02*
D03*
X17299Y13750D02*
D03*
X17693D02*
D03*
X19527Y6430D02*
D03*
X19133D02*
D03*
X19239Y13830D02*
D03*
X19633D02*
D03*
X21443Y9740D02*
D03*
X21049D02*
D03*
X27793Y7950D02*
D03*
X28187D02*
D03*
X48877Y8137D02*
D03*
X48483D02*
D03*
X49697D02*
D03*
X49303D02*
D03*
X30953Y7860D02*
D03*
X31347D02*
D03*
X44167Y8050D02*
D03*
X43773D02*
D03*
X35593Y8430D02*
D03*
X35987D02*
D03*
X2423Y14520D02*
D03*
X2817D02*
D03*
X4013Y11840D02*
D03*
X3619D02*
D03*
X995Y10240D02*
D03*
X602D02*
D03*
X6267Y11100D02*
D03*
X5873D02*
D03*
X10573D02*
D03*
X10967D02*
D03*
X9787Y4850D02*
D03*
X9393D02*
D03*
X13613Y9420D02*
D03*
X13219D02*
D03*
X13189Y10220D02*
D03*
X13583D02*
D03*
X2393Y15197D02*
D03*
X1999D02*
D03*
X47308Y16355D02*
D03*
X47702D02*
D03*
D112*
X7697Y7120D02*
D03*
X7303D02*
D03*
X47002Y19777D02*
D03*
X47395D02*
D03*
X44512D02*
D03*
X44905D02*
D03*
X44512Y21277D02*
D03*
X44905D02*
D03*
X47002D02*
D03*
X47395D02*
D03*
X29343Y5150D02*
D03*
X29737D02*
D03*
X21377Y16390D02*
D03*
X20983D02*
D03*
X17627Y6440D02*
D03*
X17233D02*
D03*
X17993D02*
D03*
X18387D02*
D03*
X21483Y10800D02*
D03*
X21089D02*
D03*
X5563Y14540D02*
D03*
X5957D02*
D03*
X48492Y9370D02*
D03*
X48885D02*
D03*
X49705D02*
D03*
X49312D02*
D03*
X31193Y5150D02*
D03*
X31587D02*
D03*
X32907Y8560D02*
D03*
X32513D02*
D03*
X31393D02*
D03*
X31787D02*
D03*
X995Y10590D02*
D03*
X602D02*
D03*
X20983Y15180D02*
D03*
X21377D02*
D03*
X20983Y15600D02*
D03*
X21377D02*
D03*
X20983Y15960D02*
D03*
X21377D02*
D03*
X8467Y7120D02*
D03*
X8073D02*
D03*
X5453Y5730D02*
D03*
X5847D02*
D03*
X11003Y6540D02*
D03*
X11397D02*
D03*
X9783Y1820D02*
D03*
X10177D02*
D03*
X13637Y5880D02*
D03*
X13243D02*
D03*
X41707Y20990D02*
D03*
X41313D02*
D03*
D113*
X33434Y3700D02*
D03*
X33966D02*
D03*
X42791Y16317D02*
D03*
X43322D02*
D03*
X44149Y17119D02*
D03*
X44681D02*
D03*
X19592Y14230D02*
D03*
X19060D02*
D03*
X20284Y13810D02*
D03*
X20816D02*
D03*
X3660Y11440D02*
D03*
X4192D02*
D03*
X5226Y9280D02*
D03*
X4694D02*
D03*
X6886Y7070D02*
D03*
X6354D02*
D03*
D114*
X37173Y1124D02*
D03*
Y1518D02*
D03*
X19683Y18217D02*
D03*
Y17823D02*
D03*
X3410Y23207D02*
D03*
Y22813D02*
D03*
X13076Y11263D02*
D03*
Y11657D02*
D03*
X37400Y23717D02*
D03*
Y23323D02*
D03*
X4050Y21693D02*
D03*
Y22087D02*
D03*
X6740Y15033D02*
D03*
Y15427D02*
D03*
X48900Y8553D02*
D03*
Y8947D02*
D03*
X49290Y8553D02*
D03*
Y8947D02*
D03*
X12660Y13956D02*
D03*
Y13563D02*
D03*
X12660Y12820D02*
D03*
Y13214D02*
D03*
X20836Y13237D02*
D03*
Y12843D02*
D03*
X25400Y10997D02*
D03*
Y10603D02*
D03*
X44744Y12385D02*
D03*
X45104D02*
D03*
X2730Y10047D02*
D03*
Y9653D02*
D03*
X3090Y10307D02*
D03*
Y9913D02*
D03*
X4639Y5467D02*
D03*
Y5073D02*
D03*
X4289Y5073D02*
D03*
Y5467D02*
D03*
X12830Y14943D02*
D03*
Y15337D02*
D03*
X4630Y4323D02*
D03*
Y4717D02*
D03*
X6430Y16742D02*
D03*
Y17136D02*
D03*
Y19933D02*
D03*
Y20327D02*
D03*
X14500Y5613D02*
D03*
Y6007D02*
D03*
X41070Y14827D02*
D03*
Y14433D02*
D03*
X40710Y14827D02*
D03*
Y14433D02*
D03*
X45104Y11991D02*
D03*
X44744D02*
D03*
X12829Y6987D02*
D03*
Y6593D02*
D03*
X13203Y6987D02*
D03*
Y6593D02*
D03*
X31020Y17003D02*
D03*
Y17397D02*
D03*
D115*
X37843Y1134D02*
D03*
Y1508D02*
D03*
X33113Y3077D02*
D03*
Y2703D02*
D03*
X36856Y4737D02*
D03*
Y4363D02*
D03*
X2336Y11143D02*
D03*
Y11517D02*
D03*
D116*
X37513Y1124D02*
D03*
Y1518D02*
D03*
X47718Y17407D02*
D03*
Y17013D02*
D03*
X46318Y17013D02*
D03*
Y17407D02*
D03*
X45468Y12989D02*
D03*
Y12595D02*
D03*
X46531Y12989D02*
D03*
Y12595D02*
D03*
X45606Y17015D02*
D03*
Y17408D02*
D03*
X41884Y15374D02*
D03*
Y14980D02*
D03*
X12726Y11263D02*
D03*
Y11657D02*
D03*
X13596Y11263D02*
D03*
Y11657D02*
D03*
X13566Y14273D02*
D03*
Y14667D02*
D03*
X15386Y14637D02*
D03*
Y14243D02*
D03*
X18056Y14207D02*
D03*
Y13813D02*
D03*
X21016Y9357D02*
D03*
Y8963D02*
D03*
X20986Y11667D02*
D03*
Y11273D02*
D03*
X20836Y12467D02*
D03*
Y12073D02*
D03*
X50937Y15238D02*
D03*
Y15631D02*
D03*
X23460Y6063D02*
D03*
Y6457D02*
D03*
X33463Y3087D02*
D03*
Y2693D02*
D03*
X36076Y4737D02*
D03*
Y4343D02*
D03*
X32765Y2688D02*
D03*
Y3082D02*
D03*
X2380Y10057D02*
D03*
Y9663D02*
D03*
X8250Y3573D02*
D03*
Y3967D02*
D03*
X10120Y3973D02*
D03*
Y4367D02*
D03*
X40710Y15597D02*
D03*
Y15203D02*
D03*
X41070Y15203D02*
D03*
Y15597D02*
D03*
X13596Y10543D02*
D03*
Y10937D02*
D03*
X48256Y15133D02*
D03*
Y15527D02*
D03*
X47606Y16007D02*
D03*
Y15613D02*
D03*
X47132Y15115D02*
D03*
Y15509D02*
D03*
X49379Y15526D02*
D03*
Y15132D02*
D03*
D117*
X34600Y8133D02*
D03*
Y7867D02*
D03*
X41900Y17227D02*
D03*
Y17493D02*
D03*
X42750Y17227D02*
D03*
Y17493D02*
D03*
X41900Y18023D02*
D03*
Y17777D02*
D03*
X42750Y18023D02*
D03*
Y17777D02*
D03*
X42717Y9070D02*
D03*
X42983D02*
D03*
X42717Y9570D02*
D03*
X42983D02*
D03*
X42717Y10070D02*
D03*
X42983D02*
D03*
X46983Y8570D02*
D03*
X46717D02*
D03*
X46983Y9070D02*
D03*
X46717D02*
D03*
X46983Y9570D02*
D03*
X46717D02*
D03*
X42717Y8570D02*
D03*
X42983D02*
D03*
X42973Y8070D02*
D03*
X42727D02*
D03*
X42973Y7570D02*
D03*
X42727D02*
D03*
X42227Y9070D02*
D03*
X42473D02*
D03*
X42227Y9570D02*
D03*
X42473D02*
D03*
X42227Y10070D02*
D03*
X42473D02*
D03*
X47473Y8570D02*
D03*
X47227D02*
D03*
X47473Y9070D02*
D03*
X47227D02*
D03*
X47473Y9570D02*
D03*
X47227D02*
D03*
X21771Y11827D02*
D03*
Y12073D02*
D03*
X36890Y23773D02*
D03*
Y23527D02*
D03*
X26477Y11000D02*
D03*
X26723D02*
D03*
X26133D02*
D03*
X25867D02*
D03*
X6458Y5900D02*
D03*
X6704D02*
D03*
X6457Y5400D02*
D03*
X6703D02*
D03*
X6458Y4900D02*
D03*
X6704D02*
D03*
X11745Y6296D02*
D03*
X11991D02*
D03*
X19050Y4097D02*
D03*
Y4363D02*
D03*
X9670Y6447D02*
D03*
Y6693D02*
D03*
X5870Y17072D02*
D03*
Y16806D02*
D03*
Y20263D02*
D03*
Y19997D02*
D03*
X32123Y6600D02*
D03*
X31877D02*
D03*
X35200Y8123D02*
D03*
Y7877D02*
D03*
X34000Y8123D02*
D03*
Y7877D02*
D03*
X31877Y6000D02*
D03*
X32123D02*
D03*
X3267Y24570D02*
D03*
X3513D02*
D03*
X11520Y11737D02*
D03*
Y11983D02*
D03*
X12240Y11737D02*
D03*
Y11983D02*
D03*
X30403Y5130D02*
D03*
X30137D02*
D03*
X34250Y4817D02*
D03*
Y5063D02*
D03*
X19507Y15710D02*
D03*
X19753D02*
D03*
X48076Y21897D02*
D03*
X47830D02*
D03*
X48086Y19657D02*
D03*
X47820D02*
D03*
X48086Y20217D02*
D03*
X47820D02*
D03*
X48086Y20777D02*
D03*
X47820D02*
D03*
X48086Y21337D02*
D03*
X47820D02*
D03*
X28007Y7340D02*
D03*
X28273D02*
D03*
X29493Y6970D02*
D03*
X29227D02*
D03*
X24223Y6330D02*
D03*
X23957D02*
D03*
X24503Y7470D02*
D03*
X24237D02*
D03*
X22597Y7980D02*
D03*
X22863D02*
D03*
X22597Y7140D02*
D03*
X22863D02*
D03*
X28527Y8520D02*
D03*
X28793D02*
D03*
X29527D02*
D03*
X29793D02*
D03*
X29633Y17000D02*
D03*
X29367D02*
D03*
X29377Y16250D02*
D03*
X29623D02*
D03*
X9943Y2640D02*
D03*
X9677D02*
D03*
D118*
X4860Y10340D02*
D03*
D119*
X4360Y10793D02*
D03*
Y10596D02*
D03*
Y10399D02*
D03*
X5360D02*
D03*
Y10596D02*
D03*
Y10793D02*
D03*
D120*
X4360Y10143D02*
D03*
Y9887D02*
D03*
X5360D02*
D03*
Y10143D02*
D03*
D121*
X7776Y8177D02*
D03*
D122*
Y7960D02*
D03*
Y7763D02*
D03*
X8544D02*
D03*
Y7960D02*
D03*
Y8157D02*
D03*
D123*
X8160Y7960D02*
D03*
D124*
X9641Y7809D02*
D03*
Y8991D02*
D03*
D125*
X9700Y8400D02*
D03*
D126*
X14244Y7638D02*
D03*
Y7835D02*
D03*
Y8031D02*
D03*
Y8228D02*
D03*
Y8425D02*
D03*
Y8622D02*
D03*
Y8819D02*
D03*
Y9016D02*
D03*
Y9213D02*
D03*
Y9409D02*
D03*
Y9606D02*
D03*
Y9803D02*
D03*
Y10000D02*
D03*
Y10197D02*
D03*
Y10394D02*
D03*
Y10591D02*
D03*
Y10787D02*
D03*
Y10984D02*
D03*
Y11181D02*
D03*
Y11378D02*
D03*
Y11575D02*
D03*
Y11772D02*
D03*
Y11968D02*
D03*
Y12165D02*
D03*
Y12362D02*
D03*
X20208D02*
D03*
Y12165D02*
D03*
Y11968D02*
D03*
Y11772D02*
D03*
Y11575D02*
D03*
Y11378D02*
D03*
Y11181D02*
D03*
Y10984D02*
D03*
Y10787D02*
D03*
Y10591D02*
D03*
Y10394D02*
D03*
Y10197D02*
D03*
Y10000D02*
D03*
Y9803D02*
D03*
Y9606D02*
D03*
Y9409D02*
D03*
Y9213D02*
D03*
Y9016D02*
D03*
Y8819D02*
D03*
Y8622D02*
D03*
Y8425D02*
D03*
Y8228D02*
D03*
Y8031D02*
D03*
Y7835D02*
D03*
Y7638D02*
D03*
D127*
X14864Y12982D02*
D03*
X15061D02*
D03*
X15258D02*
D03*
X15454D02*
D03*
X15651D02*
D03*
X15848D02*
D03*
X16045D02*
D03*
X16242D02*
D03*
X16439D02*
D03*
X16636D02*
D03*
X16832D02*
D03*
X17029D02*
D03*
X17226D02*
D03*
X17423D02*
D03*
X17620D02*
D03*
X17817D02*
D03*
X18013D02*
D03*
X18210D02*
D03*
X18407D02*
D03*
X18604D02*
D03*
X18801D02*
D03*
X18998D02*
D03*
X19195D02*
D03*
X19391D02*
D03*
X19588D02*
D03*
Y7018D02*
D03*
X19391D02*
D03*
X19195D02*
D03*
X18998D02*
D03*
X18801D02*
D03*
X18604D02*
D03*
X18407D02*
D03*
X18210D02*
D03*
X18013D02*
D03*
X17817D02*
D03*
X17620D02*
D03*
X17423D02*
D03*
X17226D02*
D03*
X17029D02*
D03*
X16832D02*
D03*
X16636D02*
D03*
X16439D02*
D03*
X16242D02*
D03*
X16045D02*
D03*
X15848D02*
D03*
X15651D02*
D03*
X15454D02*
D03*
X15258D02*
D03*
X15061D02*
D03*
X14864D02*
D03*
D128*
X6850Y7547D02*
D03*
Y8413D02*
D03*
X6340Y9777D02*
D03*
Y10643D02*
D03*
D129*
X42367Y12595D02*
D03*
Y13127D02*
D03*
X42919Y12595D02*
D03*
Y13127D02*
D03*
X43844Y12310D02*
D03*
Y12841D02*
D03*
X36466Y4175D02*
D03*
Y4706D02*
D03*
X3970Y9724D02*
D03*
Y10256D02*
D03*
X3500Y9724D02*
D03*
Y10256D02*
D03*
X18530Y15694D02*
D03*
Y16226D02*
D03*
X43667Y17300D02*
D03*
Y16769D02*
D03*
X43381Y12595D02*
D03*
Y13127D02*
D03*
X44307Y12310D02*
D03*
Y12841D02*
D03*
D130*
X8015Y8970D02*
D03*
X8605D02*
D03*
D131*
X34804Y4366D02*
D03*
D132*
Y3697D02*
D03*
X35611D02*
D03*
Y4445D02*
D03*
D133*
X3521Y13034D02*
D03*
D134*
X2852D02*
D03*
Y12226D02*
D03*
X3600D02*
D03*
D135*
X9370Y11884D02*
D03*
Y11553D02*
D03*
X10010Y11884D02*
D03*
Y11553D02*
D03*
X9050Y11884D02*
D03*
Y11553D02*
D03*
X9690Y11884D02*
D03*
Y11553D02*
D03*
D136*
X7680Y10736D02*
D03*
D137*
Y9810D02*
D03*
D138*
X983Y9897D02*
D03*
X609D02*
D03*
X43667Y17714D02*
D03*
X44041D02*
D03*
X2012Y14856D02*
D03*
X2386D02*
D03*
X47505Y15112D02*
D03*
X47879Y15112D02*
D03*
D139*
X50973Y23600D02*
D03*
X5411Y1120D02*
D03*
D140*
X50623Y15115D02*
D03*
X49710D02*
D03*
D141*
X50541Y14711D02*
D03*
Y15518D02*
D03*
X49793D02*
D03*
Y14711D02*
D03*
D142*
X1730Y13760D02*
D03*
Y11240D02*
D03*
D143*
X765Y12028D02*
D03*
Y12972D02*
D03*
D144*
X1818Y11988D02*
D03*
Y12244D02*
D03*
Y13012D02*
D03*
Y12756D02*
D03*
Y12500D02*
D03*
D145*
X34067Y2365D02*
D03*
X36586D02*
D03*
D146*
X35799Y1400D02*
D03*
X34854D02*
D03*
D147*
X35838Y2454D02*
D03*
X35582D02*
D03*
X34815D02*
D03*
X35071D02*
D03*
X35326D02*
D03*
D148*
X23250Y16000D02*
D03*
Y16500D02*
D03*
Y17000D02*
D03*
Y17500D02*
D03*
Y18000D02*
D03*
X23750D02*
D03*
Y17500D02*
D03*
Y17000D02*
D03*
Y16500D02*
D03*
Y16000D02*
D03*
D149*
X49842Y2767D02*
D03*
X48346D02*
D03*
D150*
X49290Y3673D02*
D03*
X49094D02*
D03*
X48897D02*
D03*
X48700D02*
D03*
X49487D02*
D03*
D151*
X2010Y5227D02*
D03*
Y4833D02*
D03*
D152*
X484Y5857D02*
D03*
Y4203D02*
D03*
D153*
X44083Y21227D02*
D03*
X43533D02*
D03*
X46583D02*
D03*
X46033D02*
D03*
X44083Y19727D02*
D03*
X43533D02*
D03*
X46583D02*
D03*
X46033D02*
D03*
D154*
X12849Y8275D02*
D03*
Y7705D02*
D03*
X13183D02*
D03*
Y8275D02*
D03*
D155*
X13000Y2423D02*
D03*
X17000D02*
D03*
X13000Y3577D02*
D03*
X17000D02*
D03*
X12000Y2423D02*
D03*
X11000D02*
D03*
X16000D02*
D03*
X15000D02*
D03*
X18000D02*
D03*
X12000Y3577D02*
D03*
X11000D02*
D03*
X16000Y3577D02*
D03*
X15000Y3577D02*
D03*
X18000D02*
D03*
X14000Y2423D02*
D03*
Y3577D02*
D03*
X22000Y2423D02*
D03*
Y3577D02*
D03*
X20000Y2423D02*
D03*
X21000D02*
D03*
X24000D02*
D03*
X25000D02*
D03*
X20000Y3577D02*
D03*
X21000D02*
D03*
X24000D02*
D03*
X25000D02*
D03*
X23000Y2423D02*
D03*
X23000Y3577D02*
D03*
X23000Y22577D02*
D03*
X19000D02*
D03*
X23000Y21423D02*
D03*
X19000D02*
D03*
X24000Y22577D02*
D03*
X25000D02*
D03*
X20000D02*
D03*
X21000D02*
D03*
X18000D02*
D03*
X24000Y21423D02*
D03*
X25000D02*
D03*
X20000Y21423D02*
D03*
X21000Y21423D02*
D03*
X18000D02*
D03*
X22000Y22577D02*
D03*
Y21423D02*
D03*
X14400Y22577D02*
D03*
X10400D02*
D03*
X14400Y21423D02*
D03*
X10400Y21423D02*
D03*
X16400Y22577D02*
D03*
X15400D02*
D03*
X12400D02*
D03*
X11400D02*
D03*
X9400D02*
D03*
X8400D02*
D03*
X16400Y21423D02*
D03*
X15400D02*
D03*
X12400D02*
D03*
X11400D02*
D03*
X9400D02*
D03*
X8400Y21423D02*
D03*
X13400Y22577D02*
D03*
X7400D02*
D03*
X13400Y21423D02*
D03*
X7400D02*
D03*
X32000Y22577D02*
D03*
X28000D02*
D03*
X32000Y21423D02*
D03*
X28000D02*
D03*
X33000Y22577D02*
D03*
X34000D02*
D03*
X29000D02*
D03*
X30000D02*
D03*
X27000D02*
D03*
X33000Y21423D02*
D03*
X34000D02*
D03*
X29000Y21423D02*
D03*
X30000Y21423D02*
D03*
X27000D02*
D03*
X31000Y22577D02*
D03*
Y21423D02*
D03*
X18400Y18577D02*
D03*
Y17423D02*
D03*
X17400Y18577D02*
D03*
Y17423D02*
D03*
X13400Y18577D02*
D03*
Y17423D02*
D03*
X14400Y18577D02*
D03*
Y17423D02*
D03*
X8400Y18577D02*
D03*
Y17423D02*
D03*
X9400D02*
D03*
Y18577D02*
D03*
X10400Y17423D02*
D03*
Y18577D02*
D03*
X12400Y17423D02*
D03*
Y18577D02*
D03*
X11400Y17423D02*
D03*
Y18577D02*
D03*
X7400D02*
D03*
Y17423D02*
D03*
X16400D02*
D03*
Y18577D02*
D03*
X15400Y17423D02*
D03*
Y18577D02*
D03*
D156*
X24675Y14000D02*
D03*
X26425D02*
D03*
X24675Y13000D02*
D03*
X26425D02*
D03*
X24675Y12000D02*
D03*
X26425D02*
D03*
X38375Y13000D02*
D03*
X36625D02*
D03*
X38375Y15000D02*
D03*
X36625D02*
D03*
Y21000D02*
D03*
X38375D02*
D03*
X36625Y20000D02*
D03*
X38375D02*
D03*
X36625Y19000D02*
D03*
X38375D02*
D03*
X36625Y18000D02*
D03*
X38375D02*
D03*
X36625Y17000D02*
D03*
X38375D02*
D03*
X36625Y16000D02*
D03*
X38375D02*
D03*
X36625Y14000D02*
D03*
X38375D02*
D03*
D157*
X31500Y11768D02*
D03*
X32000D02*
D03*
X32500D02*
D03*
X33000D02*
D03*
X33500D02*
D03*
X31500Y10232D02*
D03*
X32000D02*
D03*
X32500D02*
D03*
X33000D02*
D03*
X33500D02*
D03*
X29000Y15018D02*
D03*
X29500D02*
D03*
X30000D02*
D03*
X30500D02*
D03*
X31000D02*
D03*
X29000Y13482D02*
D03*
X29500D02*
D03*
X30000D02*
D03*
X30500D02*
D03*
X31000D02*
D03*
X33500D02*
D03*
X33000D02*
D03*
X32500D02*
D03*
X32000D02*
D03*
X31500D02*
D03*
X33500Y15018D02*
D03*
X33000D02*
D03*
X32500D02*
D03*
X32000D02*
D03*
X31500D02*
D03*
D158*
X2298Y24140D02*
D03*
Y23640D02*
D03*
Y23140D02*
D03*
Y22640D02*
D03*
Y22140D02*
D03*
X762Y24140D02*
D03*
Y23640D02*
D03*
Y23140D02*
D03*
Y22640D02*
D03*
Y22140D02*
D03*
D159*
X4650Y7090D02*
D03*
Y8090D02*
D03*
Y16429D02*
D03*
Y17429D02*
D03*
Y19657D02*
D03*
Y20657D02*
D03*
D160*
X20179Y17624D02*
D03*
Y17880D02*
D03*
Y18136D02*
D03*
X20927D02*
D03*
Y17880D02*
D03*
Y17624D02*
D03*
X3786Y22754D02*
D03*
Y23010D02*
D03*
Y23266D02*
D03*
X4534D02*
D03*
Y23010D02*
D03*
Y22754D02*
D03*
X6324Y15506D02*
D03*
Y15250D02*
D03*
Y14994D02*
D03*
X5576D02*
D03*
Y15250D02*
D03*
Y15506D02*
D03*
X5854Y5226D02*
D03*
Y4970D02*
D03*
Y4714D02*
D03*
X5106D02*
D03*
Y4970D02*
D03*
Y5226D02*
D03*
X9456Y5494D02*
D03*
Y6006D02*
D03*
X10204D02*
D03*
Y5750D02*
D03*
Y5494D02*
D03*
X7804Y4106D02*
D03*
Y3850D02*
D03*
Y3594D02*
D03*
X7056D02*
D03*
Y3850D02*
D03*
Y4106D02*
D03*
X9674D02*
D03*
Y3594D02*
D03*
X8926D02*
D03*
Y3850D02*
D03*
Y4106D02*
D03*
D161*
X12148Y7890D02*
D03*
D162*
X11872Y7979D02*
D03*
Y7801D02*
D03*
D163*
X14110Y6058D02*
D03*
D164*
X14021Y5782D02*
D03*
X14199D02*
D03*
D165*
X40267Y6232D02*
D03*
Y4657D02*
D03*
X42924Y6232D02*
D03*
Y4657D02*
D03*
X44307Y6232D02*
D03*
Y4657D02*
D03*
X46964Y6232D02*
D03*
Y4657D02*
D03*
X42924Y985D02*
D03*
Y2560D02*
D03*
X40267Y985D02*
D03*
Y2560D02*
D03*
X46964Y985D02*
D03*
Y2560D02*
D03*
X44307Y985D02*
D03*
Y2560D02*
D03*
X31759Y985D02*
D03*
Y2560D02*
D03*
X29101Y985D02*
D03*
Y2560D02*
D03*
D166*
X40106Y23913D02*
D03*
X42074D02*
D03*
X41090D02*
D03*
Y21747D02*
D03*
X42074D02*
D03*
X40106D02*
D03*
X3160Y1027D02*
D03*
X1192D02*
D03*
X2176D02*
D03*
Y3193D02*
D03*
X1192D02*
D03*
X3160D02*
D03*
D167*
X32500Y17703D02*
D03*
X31811Y16797D02*
D03*
X33189D02*
D03*
X8809Y2328D02*
D03*
X8120D02*
D03*
X7431D02*
D03*
Y872D02*
D03*
X8120D02*
D03*
X8809D02*
D03*
D168*
X10925Y15711D02*
D03*
X10137D02*
D03*
X8563D02*
D03*
X10925Y14609D02*
D03*
X10137D02*
D03*
X7775D02*
D03*
X8563D02*
D03*
X7775Y15711D02*
D03*
D169*
X46226Y16090D02*
D03*
X44848D02*
D03*
X45045D02*
D03*
X45242D02*
D03*
X45438D02*
D03*
X45635D02*
D03*
X45832D02*
D03*
X46029D02*
D03*
X46423D02*
D03*
X44060Y15893D02*
D03*
X44356D02*
D03*
X44553D02*
D03*
X44749D02*
D03*
X44946D02*
D03*
X45143D02*
D03*
X45340D02*
D03*
X45537D02*
D03*
X45734D02*
D03*
X45931D02*
D03*
X46620D02*
D03*
X46423Y15597D02*
D03*
X44060Y15696D02*
D03*
X44257Y15597D02*
D03*
X46620Y15499D02*
D03*
X44257Y15401D02*
D03*
X46423D02*
D03*
X44060Y15302D02*
D03*
X44257Y15204D02*
D03*
X46423D02*
D03*
X44060Y15105D02*
D03*
X46620D02*
D03*
X44257Y15007D02*
D03*
X44060Y14908D02*
D03*
X46620D02*
D03*
X44257Y14810D02*
D03*
X44060Y14712D02*
D03*
X46620D02*
D03*
X44257Y14613D02*
D03*
X46423D02*
D03*
X44060Y14515D02*
D03*
X46620D02*
D03*
X44257Y14416D02*
D03*
X46423D02*
D03*
X44060Y14318D02*
D03*
X46620D02*
D03*
X46423Y14219D02*
D03*
X44060Y14121D02*
D03*
X46620D02*
D03*
X44257Y14023D02*
D03*
X46423D02*
D03*
X46620Y13924D02*
D03*
X44257Y13826D02*
D03*
X44553Y13727D02*
D03*
X44946D02*
D03*
X45143D02*
D03*
X45340D02*
D03*
X45537D02*
D03*
X45734D02*
D03*
X45931D02*
D03*
X46127D02*
D03*
X46620D02*
D03*
X44257Y13530D02*
D03*
X44454D02*
D03*
X44651D02*
D03*
X44848D02*
D03*
X45045D02*
D03*
X45242D02*
D03*
X45438D02*
D03*
X45635D02*
D03*
X45832D02*
D03*
X46029D02*
D03*
X46226D02*
D03*
X46423D02*
D03*
D170*
X45340Y14810D02*
D03*
D171*
X44850Y9320D02*
D03*
D172*
X43759Y10070D02*
D03*
Y9570D02*
D03*
Y9070D02*
D03*
Y8570D02*
D03*
X45941Y10070D02*
D03*
Y9570D02*
D03*
Y9070D02*
D03*
Y8570D02*
D03*
D173*
X42340Y20817D02*
D03*
X42497D02*
D03*
X42340Y20660D02*
D03*
X42497D02*
D03*
X8359Y6021D02*
D03*
X8201D02*
D03*
X8359Y6179D02*
D03*
X8201D02*
D03*
X8359Y5371D02*
D03*
X8201D02*
D03*
X8359Y5529D02*
D03*
X8201D02*
D03*
X8359Y4721D02*
D03*
X8201D02*
D03*
X8359Y4879D02*
D03*
X8201D02*
D03*
X9991Y7119D02*
D03*
X10149D02*
D03*
X9991Y6961D02*
D03*
X10149D02*
D03*
X9101Y7119D02*
D03*
X9259D02*
D03*
X9101Y6961D02*
D03*
X9259D02*
D03*
X11779Y6845D02*
D03*
X11937D02*
D03*
X11779Y6687D02*
D03*
X11937D02*
D03*
X10741Y11871D02*
D03*
Y12029D02*
D03*
X10899Y11871D02*
D03*
Y12029D02*
D03*
D174*
X28628Y7524D02*
D03*
Y7681D02*
D03*
Y7839D02*
D03*
Y7996D02*
D03*
X29592D02*
D03*
Y7839D02*
D03*
Y7681D02*
D03*
Y7524D02*
D03*
X23215Y7074D02*
D03*
Y7231D02*
D03*
Y7389D02*
D03*
Y7546D02*
D03*
X23865D02*
D03*
Y7389D02*
D03*
Y7231D02*
D03*
Y7074D02*
D03*
X31778Y7524D02*
D03*
Y7681D02*
D03*
Y7839D02*
D03*
Y7996D02*
D03*
X32742D02*
D03*
Y7839D02*
D03*
Y7681D02*
D03*
Y7524D02*
D03*
X35875Y9064D02*
D03*
Y9221D02*
D03*
Y9379D02*
D03*
Y9536D02*
D03*
X36525D02*
D03*
Y9379D02*
D03*
Y9221D02*
D03*
Y9064D02*
D03*
D175*
X28874Y8085D02*
D03*
X29031D02*
D03*
X29189D02*
D03*
X29346D02*
D03*
Y7435D02*
D03*
X29189D02*
D03*
X29031D02*
D03*
X28874D02*
D03*
X23776Y6828D02*
D03*
X23619D02*
D03*
X23461D02*
D03*
X23304D02*
D03*
Y7792D02*
D03*
X23461D02*
D03*
X23619D02*
D03*
X23776D02*
D03*
X32024Y8085D02*
D03*
X32181D02*
D03*
X32339D02*
D03*
X32496D02*
D03*
Y7435D02*
D03*
X32339D02*
D03*
X32181D02*
D03*
X32024D02*
D03*
X36436Y8818D02*
D03*
X36279D02*
D03*
X36121D02*
D03*
X35964D02*
D03*
Y9782D02*
D03*
X36121D02*
D03*
X36279D02*
D03*
X36436D02*
D03*
D176*
X8659Y10534D02*
D03*
Y10278D02*
D03*
Y10022D02*
D03*
Y9766D02*
D03*
X10981Y10534D02*
D03*
Y10278D02*
D03*
Y10022D02*
D03*
Y9766D02*
D03*
D177*
X33564Y5472D02*
D03*
X33190D02*
D03*
X32816D02*
D03*
Y4408D02*
D03*
X33564D02*
D03*
D178*
X20161Y16236D02*
D03*
Y16610D02*
D03*
Y16984D02*
D03*
X19099D02*
D03*
Y16236D02*
D03*
D179*
X46732Y16983D02*
D03*
Y17436D02*
D03*
X47303D02*
D03*
Y16983D02*
D03*
D180*
X43276Y15167D02*
D03*
X42292D02*
D03*
D181*
X36730Y6350D02*
D03*
X37480D02*
D03*
X38230D02*
D03*
X35980D02*
D03*
X12000Y10000D02*
D03*
Y11000D02*
D03*
X3220Y4490D02*
D03*
X7400Y24500D02*
D03*
Y23500D02*
D03*
X8400D02*
D03*
Y24500D02*
D03*
X10400D02*
D03*
Y23500D02*
D03*
X11400D02*
D03*
Y24500D02*
D03*
X13400Y23500D02*
D03*
Y24500D02*
D03*
X16400Y23500D02*
D03*
X15400Y24500D02*
D03*
Y23500D02*
D03*
X14400Y24500D02*
D03*
Y23500D02*
D03*
X12400Y24500D02*
D03*
Y23500D02*
D03*
X9400D02*
D03*
Y24500D02*
D03*
X27000D02*
D03*
Y23500D02*
D03*
X30000D02*
D03*
Y24500D02*
D03*
X32000Y23500D02*
D03*
Y24500D02*
D03*
X33000Y23500D02*
D03*
Y24500D02*
D03*
X34000Y23500D02*
D03*
X31000Y24500D02*
D03*
Y23500D02*
D03*
X29000Y24500D02*
D03*
Y23500D02*
D03*
X28000D02*
D03*
Y24500D02*
D03*
X18000D02*
D03*
Y23500D02*
D03*
X21000D02*
D03*
Y24500D02*
D03*
X23000Y23500D02*
D03*
Y24500D02*
D03*
X24000Y23500D02*
D03*
Y24500D02*
D03*
X25000Y23500D02*
D03*
X22000Y24500D02*
D03*
Y23500D02*
D03*
X20000Y24500D02*
D03*
Y23500D02*
D03*
X19000D02*
D03*
Y24500D02*
D03*
X18000Y500D02*
D03*
Y1500D02*
D03*
X15000D02*
D03*
Y500D02*
D03*
X13000Y1500D02*
D03*
Y500D02*
D03*
X12000Y1500D02*
D03*
Y500D02*
D03*
X11000Y1500D02*
D03*
X14000Y500D02*
D03*
Y1500D02*
D03*
X16000Y500D02*
D03*
Y1500D02*
D03*
X17000D02*
D03*
Y500D02*
D03*
X25000Y1500D02*
D03*
Y500D02*
D03*
X23000Y1500D02*
D03*
Y500D02*
D03*
X20000Y1500D02*
D03*
X21000Y500D02*
D03*
Y1500D02*
D03*
X22000Y500D02*
D03*
Y1500D02*
D03*
X24000Y500D02*
D03*
Y1500D02*
D03*
X49250Y24000D02*
D03*
X26750Y2250D02*
D03*
D182*
X50500Y18250D02*
D03*
X26000Y5000D02*
D03*
Y16000D02*
D03*
X5500Y3000D02*
D03*
X6000Y22000D02*
D03*
X38000Y3000D02*
D03*
X35500Y22000D02*
D03*
D183*
X12000Y9000D02*
D03*
X3220Y5490D02*
D03*
D184*
X16400Y24500D02*
D03*
X34000D02*
D03*
X25000D02*
D03*
X11000Y500D02*
D03*
X20000D02*
D03*
D185*
X765Y13799D02*
D03*
Y11201D02*
D03*
D186*
X34027Y1400D02*
D03*
X36626D02*
D03*
D187*
X2880Y7590D02*
D03*
Y16929D02*
D03*
Y20157D02*
D03*
D188*
X6340Y11790D02*
D03*
X1590Y10630D02*
D03*
X5930Y15480D02*
D03*
X6310Y14550D02*
D03*
X3370Y15434D02*
D03*
X2790Y13554D02*
D03*
X1360Y11844D02*
D03*
Y12754D02*
D03*
X4326Y11795D02*
D03*
X3700Y13504D02*
D03*
X5296Y11670D02*
D03*
X4500Y14500D02*
D03*
X4216Y11080D02*
D03*
X2446Y11870D02*
D03*
X6300Y12360D02*
D03*
X3210Y14500D02*
D03*
X2760Y15190D02*
D03*
X7140Y14630D02*
D03*
X3140Y11780D02*
D03*
X2670Y11360D02*
D03*
X4650Y10990D02*
D03*
X5060D02*
D03*
X5020Y9660D02*
D03*
X4670D02*
D03*
M02*
