G04*
G04 #@! TF.GenerationSoftware,Altium Limited,Altium Designer,18.0.11 (651)*
G04*
G04 Layer_Color=8421504*
%FSLAX24Y24*%
%MOIN*%
G70*
G01*
G75*
%ADD32O,0.0787X0.0591*%
%ADD33O,0.0591X0.0787*%
%ADD34R,0.0138X0.0118*%
%ADD35R,0.0138X0.0098*%
%ADD36R,0.0551X0.0197*%
%ADD37R,0.0315X0.0118*%
%ADD38R,0.0197X0.0148*%
%ADD39R,0.0138X0.0138*%
%ADD40R,0.0138X0.0098*%
%ADD41R,0.0366X0.0445*%
%ADD42R,0.0472X0.0433*%
%ADD43R,0.0236X0.0197*%
%ADD44R,0.0236X0.0217*%
%ADD45R,0.0295X0.0315*%
%ADD46R,0.0217X0.0236*%
%ADD47R,0.0197X0.0256*%
%ADD48R,0.0197X0.0236*%
%ADD49R,0.0138X0.0059*%
%ADD50R,0.0108X0.0118*%
%ADD51R,0.0138X0.0098*%
%ADD52R,0.0138X0.0059*%
%ADD53R,0.0551X0.0236*%
%ADD54R,0.0669X0.0236*%
%ADD55O,0.0650X0.0118*%
%ADD56O,0.0118X0.0650*%
%ADD57R,0.1063X0.0315*%
%ADD58R,0.0315X0.0295*%
%ADD59R,0.0433X0.0551*%
%ADD60R,0.0335X0.0394*%
%ADD61R,0.0335X0.0236*%
%ADD62R,0.0394X0.0335*%
%ADD63R,0.0236X0.0335*%
%ADD64R,0.0098X0.0142*%
%ADD65R,0.1000X0.1051*%
%ADD66R,0.0500X0.0300*%
%ADD67R,0.0256X0.0197*%
%ADD68C,0.0394*%
%ADD69R,0.0228X0.0197*%
%ADD70R,0.0315X0.0295*%
%ADD71R,0.0551X0.0630*%
%ADD72R,0.0610X0.0748*%
%ADD73R,0.0531X0.0157*%
%ADD74R,0.0630X0.0551*%
%ADD75R,0.0748X0.0610*%
%ADD76R,0.0157X0.0531*%
%ADD77R,0.0236X0.1024*%
%ADD78R,0.0118X0.0315*%
%ADD79R,0.0610X0.0236*%
%ADD80R,0.0709X0.0472*%
%ADD81R,0.0300X0.0320*%
%ADD82R,0.0256X0.0335*%
%ADD83R,0.0402X0.0862*%
%ADD84R,0.1500X0.0500*%
%ADD85R,0.0299X0.0945*%
%ADD86R,0.0945X0.0299*%
%ADD87R,0.1252X0.0500*%
%ADD88R,0.0354X0.0138*%
%ADD89R,0.0157X0.0276*%
%ADD90R,0.0157X0.0098*%
%ADD91R,0.0276X0.0157*%
%ADD92R,0.0098X0.0157*%
%ADD93R,0.1083X0.0551*%
%ADD94R,0.0472X0.0787*%
%ADD95R,0.0394X0.0630*%
%ADD96R,0.0472X0.0630*%
%ADD97C,0.0118*%
%ADD98R,0.1909X0.1909*%
%ADD99R,0.0453X0.0177*%
%ADD100C,0.0087*%
%ADD101O,0.0240X0.0071*%
%ADD102O,0.0071X0.0240*%
%ADD103O,0.0551X0.0177*%
%ADD104R,0.0236X0.0394*%
%ADD105R,0.0394X0.0236*%
%ADD106R,0.0374X0.0335*%
%ADD107R,0.0394X0.0709*%
G36*
X11334Y8518D02*
Y8282D01*
X11078Y8026D01*
X10291D01*
X10035Y8282D01*
Y8518D01*
X10291Y8774D01*
X11078D01*
X11334Y8518D01*
D02*
G37*
D32*
X765Y11201D02*
D03*
Y13799D02*
D03*
D33*
X36626Y1400D02*
D03*
X34027D02*
D03*
D34*
X4360Y9887D02*
D03*
Y10143D02*
D03*
X5360D02*
D03*
Y9887D02*
D03*
D35*
X5360Y10399D02*
D03*
Y10596D02*
D03*
Y10793D02*
D03*
X4360D02*
D03*
Y10596D02*
D03*
Y10399D02*
D03*
D36*
X4860Y10025D02*
D03*
Y10655D02*
D03*
D37*
X8160Y8137D02*
D03*
X8160Y7783D02*
D03*
D38*
X8160Y8162D02*
D03*
Y7758D02*
D03*
D39*
X7776Y8177D02*
D03*
D40*
Y7960D02*
D03*
Y7763D02*
D03*
X8544D02*
D03*
Y7960D02*
D03*
Y8157D02*
D03*
D41*
X44405Y9844D02*
D03*
Y9320D02*
D03*
Y8796D02*
D03*
X44850Y9844D02*
D03*
Y9320D02*
D03*
Y8796D02*
D03*
X45295Y9844D02*
D03*
Y9320D02*
D03*
Y8796D02*
D03*
D42*
X14946Y14109D02*
D03*
Y14811D02*
D03*
X14006Y14109D02*
D03*
Y14811D02*
D03*
D43*
X7707Y6760D02*
D03*
X7313D02*
D03*
X44607Y16710D02*
D03*
X44213D02*
D03*
X43238Y15927D02*
D03*
X42844D02*
D03*
X47466Y14023D02*
D03*
X47860D02*
D03*
X46216Y16601D02*
D03*
X46610D02*
D03*
X42637Y14587D02*
D03*
X43031D02*
D03*
X15253Y6440D02*
D03*
X14859D02*
D03*
X15179Y13580D02*
D03*
X15573D02*
D03*
X16043Y6450D02*
D03*
X16437D02*
D03*
X17299Y13750D02*
D03*
X17693D02*
D03*
X19527Y6430D02*
D03*
X19133D02*
D03*
X19239Y13830D02*
D03*
X19633D02*
D03*
X21443Y9740D02*
D03*
X21049D02*
D03*
X27793Y7950D02*
D03*
X28187D02*
D03*
X48877Y8137D02*
D03*
X48483D02*
D03*
X49697D02*
D03*
X49303D02*
D03*
X30953Y7860D02*
D03*
X31347D02*
D03*
X44167Y8050D02*
D03*
X43773D02*
D03*
X35593Y8430D02*
D03*
X35987D02*
D03*
X2423Y14520D02*
D03*
X2817D02*
D03*
X4013Y11840D02*
D03*
X3619D02*
D03*
X995Y10240D02*
D03*
X602D02*
D03*
X6267Y11100D02*
D03*
X5873D02*
D03*
X10573D02*
D03*
X10967D02*
D03*
X9787Y4850D02*
D03*
X9393D02*
D03*
X13613Y9420D02*
D03*
X13219D02*
D03*
X13189Y10220D02*
D03*
X13583D02*
D03*
X2393Y15197D02*
D03*
X1999D02*
D03*
X47308Y16355D02*
D03*
X47702D02*
D03*
D44*
X7697Y7120D02*
D03*
X7303D02*
D03*
X47002Y19777D02*
D03*
X47395D02*
D03*
X44512D02*
D03*
X44905D02*
D03*
X44512Y21277D02*
D03*
X44905D02*
D03*
X47002D02*
D03*
X47395D02*
D03*
X29343Y5150D02*
D03*
X29737D02*
D03*
X21377Y16390D02*
D03*
X20983D02*
D03*
X17627Y6440D02*
D03*
X17233D02*
D03*
X17993D02*
D03*
X18387D02*
D03*
X21483Y10800D02*
D03*
X21089D02*
D03*
X5563Y14540D02*
D03*
X5957D02*
D03*
X48492Y9370D02*
D03*
X48885D02*
D03*
X49705D02*
D03*
X49312D02*
D03*
X31193Y5150D02*
D03*
X31587D02*
D03*
X32907Y8560D02*
D03*
X32513D02*
D03*
X31393D02*
D03*
X31787D02*
D03*
X995Y10590D02*
D03*
X602D02*
D03*
X20983Y15180D02*
D03*
X21377D02*
D03*
X20983Y15600D02*
D03*
X21377D02*
D03*
X20983Y15960D02*
D03*
X21377D02*
D03*
X8467Y7120D02*
D03*
X8073D02*
D03*
X5453Y5730D02*
D03*
X5847D02*
D03*
X11003Y6540D02*
D03*
X11397D02*
D03*
X9783Y1820D02*
D03*
X10177D02*
D03*
X13637Y5880D02*
D03*
X13243D02*
D03*
X41707Y20990D02*
D03*
X41313D02*
D03*
D45*
X33434Y3700D02*
D03*
X33966D02*
D03*
X42791Y16317D02*
D03*
X43322D02*
D03*
X44149Y17119D02*
D03*
X44681D02*
D03*
X19592Y14230D02*
D03*
X19060D02*
D03*
X20284Y13810D02*
D03*
X20816D02*
D03*
X3660Y11440D02*
D03*
X4192D02*
D03*
X5226Y9280D02*
D03*
X4694D02*
D03*
X6886Y7070D02*
D03*
X6354D02*
D03*
D46*
X37173Y1124D02*
D03*
Y1518D02*
D03*
X19683Y18217D02*
D03*
Y17823D02*
D03*
X3410Y23207D02*
D03*
Y22813D02*
D03*
X13076Y11263D02*
D03*
Y11657D02*
D03*
X37400Y23717D02*
D03*
Y23323D02*
D03*
X4050Y21693D02*
D03*
Y22087D02*
D03*
X6740Y15033D02*
D03*
Y15427D02*
D03*
X48900Y8553D02*
D03*
Y8947D02*
D03*
X49290Y8553D02*
D03*
Y8947D02*
D03*
X12660Y13956D02*
D03*
Y13563D02*
D03*
X12660Y12820D02*
D03*
Y13214D02*
D03*
X20836Y13237D02*
D03*
Y12843D02*
D03*
X25400Y10997D02*
D03*
Y10603D02*
D03*
X44744Y12385D02*
D03*
X45104D02*
D03*
X2730Y10047D02*
D03*
Y9653D02*
D03*
X3090Y10307D02*
D03*
Y9913D02*
D03*
X4639Y5467D02*
D03*
Y5073D02*
D03*
X4289Y5073D02*
D03*
Y5467D02*
D03*
X12830Y14943D02*
D03*
Y15337D02*
D03*
X4630Y4323D02*
D03*
Y4717D02*
D03*
X6430Y16742D02*
D03*
Y17136D02*
D03*
Y19933D02*
D03*
Y20327D02*
D03*
X14500Y5613D02*
D03*
Y6007D02*
D03*
X41070Y14827D02*
D03*
Y14433D02*
D03*
X40710Y14827D02*
D03*
Y14433D02*
D03*
X45104Y11991D02*
D03*
X44744D02*
D03*
X12829Y6987D02*
D03*
Y6593D02*
D03*
X13203Y6987D02*
D03*
Y6593D02*
D03*
X31020Y17003D02*
D03*
Y17397D02*
D03*
D47*
X37843Y1134D02*
D03*
Y1508D02*
D03*
X33113Y3077D02*
D03*
Y2703D02*
D03*
X36856Y4737D02*
D03*
Y4363D02*
D03*
X2336Y11143D02*
D03*
Y11517D02*
D03*
D48*
X37513Y1124D02*
D03*
Y1518D02*
D03*
X47718Y17407D02*
D03*
Y17013D02*
D03*
X46318Y17013D02*
D03*
Y17407D02*
D03*
X45468Y12989D02*
D03*
Y12595D02*
D03*
X46531Y12989D02*
D03*
Y12595D02*
D03*
X45606Y17015D02*
D03*
Y17408D02*
D03*
X41884Y15374D02*
D03*
Y14980D02*
D03*
X12726Y11263D02*
D03*
Y11657D02*
D03*
X13596Y11263D02*
D03*
Y11657D02*
D03*
X13566Y14273D02*
D03*
Y14667D02*
D03*
X15386Y14637D02*
D03*
Y14243D02*
D03*
X18056Y14207D02*
D03*
Y13813D02*
D03*
X21016Y9357D02*
D03*
Y8963D02*
D03*
X20986Y11667D02*
D03*
Y11273D02*
D03*
X20836Y12467D02*
D03*
Y12073D02*
D03*
X50937Y15238D02*
D03*
Y15631D02*
D03*
X23460Y6063D02*
D03*
Y6457D02*
D03*
X33463Y3087D02*
D03*
Y2693D02*
D03*
X36076Y4737D02*
D03*
Y4343D02*
D03*
X32765Y2688D02*
D03*
Y3082D02*
D03*
X2380Y10057D02*
D03*
Y9663D02*
D03*
X8250Y3573D02*
D03*
Y3967D02*
D03*
X10120Y3973D02*
D03*
Y4367D02*
D03*
X40710Y15597D02*
D03*
Y15203D02*
D03*
X41070Y15203D02*
D03*
Y15597D02*
D03*
X13596Y10543D02*
D03*
Y10937D02*
D03*
X48256Y15133D02*
D03*
Y15527D02*
D03*
X47606Y16007D02*
D03*
Y15613D02*
D03*
X47132Y15115D02*
D03*
Y15509D02*
D03*
X49379Y15526D02*
D03*
Y15132D02*
D03*
D49*
X4360Y10793D02*
D03*
Y10596D02*
D03*
Y10399D02*
D03*
X5360D02*
D03*
Y10596D02*
D03*
Y10793D02*
D03*
D50*
X4360Y10143D02*
D03*
Y9887D02*
D03*
X5360D02*
D03*
Y10143D02*
D03*
D51*
X7776Y8177D02*
D03*
D52*
Y7960D02*
D03*
Y7763D02*
D03*
X8544D02*
D03*
Y7960D02*
D03*
Y8157D02*
D03*
D53*
X9641Y7809D02*
D03*
Y8991D02*
D03*
D54*
X9700Y8400D02*
D03*
D55*
X14244Y7638D02*
D03*
Y7835D02*
D03*
Y8031D02*
D03*
Y8228D02*
D03*
Y8425D02*
D03*
Y8622D02*
D03*
Y8819D02*
D03*
Y9016D02*
D03*
Y9213D02*
D03*
Y9409D02*
D03*
Y9606D02*
D03*
Y9803D02*
D03*
Y10000D02*
D03*
Y10197D02*
D03*
Y10394D02*
D03*
Y10591D02*
D03*
Y10787D02*
D03*
Y10984D02*
D03*
Y11181D02*
D03*
Y11378D02*
D03*
Y11575D02*
D03*
Y11772D02*
D03*
Y11968D02*
D03*
Y12165D02*
D03*
Y12362D02*
D03*
X20208D02*
D03*
Y12165D02*
D03*
Y11968D02*
D03*
Y11772D02*
D03*
Y11575D02*
D03*
Y11378D02*
D03*
Y11181D02*
D03*
Y10984D02*
D03*
Y10787D02*
D03*
Y10591D02*
D03*
Y10394D02*
D03*
Y10197D02*
D03*
Y10000D02*
D03*
Y9803D02*
D03*
Y9606D02*
D03*
Y9409D02*
D03*
Y9213D02*
D03*
Y9016D02*
D03*
Y8819D02*
D03*
Y8622D02*
D03*
Y8425D02*
D03*
Y8228D02*
D03*
Y8031D02*
D03*
Y7835D02*
D03*
Y7638D02*
D03*
D56*
X14864Y12982D02*
D03*
X15061D02*
D03*
X15258D02*
D03*
X15454D02*
D03*
X15651D02*
D03*
X15848D02*
D03*
X16045D02*
D03*
X16242D02*
D03*
X16439D02*
D03*
X16636D02*
D03*
X16832D02*
D03*
X17029D02*
D03*
X17226D02*
D03*
X17423D02*
D03*
X17620D02*
D03*
X17817D02*
D03*
X18013D02*
D03*
X18210D02*
D03*
X18407D02*
D03*
X18604D02*
D03*
X18801D02*
D03*
X18998D02*
D03*
X19195D02*
D03*
X19391D02*
D03*
X19588D02*
D03*
Y7018D02*
D03*
X19391D02*
D03*
X19195D02*
D03*
X18998D02*
D03*
X18801D02*
D03*
X18604D02*
D03*
X18407D02*
D03*
X18210D02*
D03*
X18013D02*
D03*
X17817D02*
D03*
X17620D02*
D03*
X17423D02*
D03*
X17226D02*
D03*
X17029D02*
D03*
X16832D02*
D03*
X16636D02*
D03*
X16439D02*
D03*
X16242D02*
D03*
X16045D02*
D03*
X15848D02*
D03*
X15651D02*
D03*
X15454D02*
D03*
X15258D02*
D03*
X15061D02*
D03*
X14864D02*
D03*
D57*
X6850Y7547D02*
D03*
Y8413D02*
D03*
X6340Y9777D02*
D03*
Y10643D02*
D03*
D58*
X42367Y12595D02*
D03*
Y13127D02*
D03*
X42919Y12595D02*
D03*
Y13127D02*
D03*
X43844Y12310D02*
D03*
Y12841D02*
D03*
X36466Y4175D02*
D03*
Y4706D02*
D03*
X3970Y9724D02*
D03*
Y10256D02*
D03*
X3500Y9724D02*
D03*
Y10256D02*
D03*
X18530Y15694D02*
D03*
Y16226D02*
D03*
X43667Y17300D02*
D03*
Y16769D02*
D03*
X43381Y12595D02*
D03*
Y13127D02*
D03*
X44307Y12310D02*
D03*
Y12841D02*
D03*
D59*
X8015Y8970D02*
D03*
X8605D02*
D03*
D60*
X34804Y4366D02*
D03*
D61*
Y3697D02*
D03*
X35611D02*
D03*
Y4445D02*
D03*
D62*
X3521Y13034D02*
D03*
D63*
X2852D02*
D03*
Y12226D02*
D03*
X3600D02*
D03*
D64*
X9370Y11884D02*
D03*
Y11553D02*
D03*
X10010Y11884D02*
D03*
Y11553D02*
D03*
X9050Y11884D02*
D03*
Y11553D02*
D03*
X9690Y11884D02*
D03*
Y11553D02*
D03*
D65*
X7680Y10736D02*
D03*
D66*
Y9810D02*
D03*
D67*
X983Y9897D02*
D03*
X609D02*
D03*
X43667Y17714D02*
D03*
X44041D02*
D03*
X2012Y14856D02*
D03*
X2386D02*
D03*
X47505Y15112D02*
D03*
X47879Y15112D02*
D03*
D68*
X50973Y23600D02*
D03*
X5411Y1120D02*
D03*
D69*
X50623Y15115D02*
D03*
X49710D02*
D03*
D70*
X50541Y14711D02*
D03*
Y15518D02*
D03*
X49793D02*
D03*
Y14711D02*
D03*
D71*
X1730Y13760D02*
D03*
Y11240D02*
D03*
D72*
X765Y12028D02*
D03*
Y12972D02*
D03*
D73*
X1818Y11988D02*
D03*
Y12244D02*
D03*
Y13012D02*
D03*
Y12756D02*
D03*
Y12500D02*
D03*
D74*
X34067Y2365D02*
D03*
X36586D02*
D03*
D75*
X35799Y1400D02*
D03*
X34854D02*
D03*
D76*
X35838Y2454D02*
D03*
X35582D02*
D03*
X34815D02*
D03*
X35071D02*
D03*
X35326D02*
D03*
D77*
X49842Y2767D02*
D03*
X48346D02*
D03*
D78*
X49290Y3673D02*
D03*
X49094D02*
D03*
X48897D02*
D03*
X48700D02*
D03*
X49487D02*
D03*
D79*
X2010Y5227D02*
D03*
Y4833D02*
D03*
D80*
X484Y5857D02*
D03*
Y4203D02*
D03*
D81*
X44083Y21227D02*
D03*
X43533D02*
D03*
X46583D02*
D03*
X46033D02*
D03*
X44083Y19727D02*
D03*
X43533D02*
D03*
X46583D02*
D03*
X46033D02*
D03*
D82*
X12849Y8275D02*
D03*
Y7705D02*
D03*
X13183D02*
D03*
Y8275D02*
D03*
D83*
X13000Y2423D02*
D03*
X17000D02*
D03*
X13000Y3577D02*
D03*
X17000D02*
D03*
X12000Y2423D02*
D03*
X11000D02*
D03*
X16000D02*
D03*
X15000D02*
D03*
X18000D02*
D03*
X12000Y3577D02*
D03*
X11000D02*
D03*
X16000Y3577D02*
D03*
X15000Y3577D02*
D03*
X18000D02*
D03*
X14000Y2423D02*
D03*
Y3577D02*
D03*
X22000Y2423D02*
D03*
Y3577D02*
D03*
X20000Y2423D02*
D03*
X21000D02*
D03*
X24000D02*
D03*
X25000D02*
D03*
X20000Y3577D02*
D03*
X21000D02*
D03*
X24000D02*
D03*
X25000D02*
D03*
X23000Y2423D02*
D03*
X23000Y3577D02*
D03*
X23000Y22577D02*
D03*
X19000D02*
D03*
X23000Y21423D02*
D03*
X19000D02*
D03*
X24000Y22577D02*
D03*
X25000D02*
D03*
X20000D02*
D03*
X21000D02*
D03*
X18000D02*
D03*
X24000Y21423D02*
D03*
X25000D02*
D03*
X20000Y21423D02*
D03*
X21000Y21423D02*
D03*
X18000D02*
D03*
X22000Y22577D02*
D03*
Y21423D02*
D03*
X14400Y22577D02*
D03*
X10400D02*
D03*
X14400Y21423D02*
D03*
X10400Y21423D02*
D03*
X16400Y22577D02*
D03*
X15400D02*
D03*
X12400D02*
D03*
X11400D02*
D03*
X9400D02*
D03*
X8400D02*
D03*
X16400Y21423D02*
D03*
X15400D02*
D03*
X12400D02*
D03*
X11400D02*
D03*
X9400D02*
D03*
X8400Y21423D02*
D03*
X13400Y22577D02*
D03*
X7400D02*
D03*
X13400Y21423D02*
D03*
X7400D02*
D03*
X32000Y22577D02*
D03*
X28000D02*
D03*
X32000Y21423D02*
D03*
X28000D02*
D03*
X33000Y22577D02*
D03*
X34000D02*
D03*
X29000D02*
D03*
X30000D02*
D03*
X27000D02*
D03*
X33000Y21423D02*
D03*
X34000D02*
D03*
X29000Y21423D02*
D03*
X30000Y21423D02*
D03*
X27000D02*
D03*
X31000Y22577D02*
D03*
Y21423D02*
D03*
X18400Y18577D02*
D03*
Y17423D02*
D03*
X17400Y18577D02*
D03*
Y17423D02*
D03*
X13400Y18577D02*
D03*
Y17423D02*
D03*
X14400Y18577D02*
D03*
Y17423D02*
D03*
X8400Y18577D02*
D03*
Y17423D02*
D03*
X9400D02*
D03*
Y18577D02*
D03*
X10400Y17423D02*
D03*
Y18577D02*
D03*
X12400Y17423D02*
D03*
Y18577D02*
D03*
X11400Y17423D02*
D03*
Y18577D02*
D03*
X7400D02*
D03*
Y17423D02*
D03*
X16400D02*
D03*
Y18577D02*
D03*
X15400Y17423D02*
D03*
Y18577D02*
D03*
D84*
X24675Y14000D02*
D03*
X26425D02*
D03*
X24675Y13000D02*
D03*
X26425D02*
D03*
X24675Y12000D02*
D03*
X26425D02*
D03*
X38375Y13000D02*
D03*
X36625D02*
D03*
X38375Y15000D02*
D03*
X36625D02*
D03*
Y21000D02*
D03*
X38375D02*
D03*
X36625Y20000D02*
D03*
X38375D02*
D03*
X36625Y19000D02*
D03*
X38375D02*
D03*
X36625Y18000D02*
D03*
X38375D02*
D03*
X36625Y17000D02*
D03*
X38375D02*
D03*
X36625Y16000D02*
D03*
X38375D02*
D03*
X36625Y14000D02*
D03*
X38375D02*
D03*
D85*
X31500Y11768D02*
D03*
X32000D02*
D03*
X32500D02*
D03*
X33000D02*
D03*
X33500D02*
D03*
X31500Y10232D02*
D03*
X32000D02*
D03*
X32500D02*
D03*
X33000D02*
D03*
X33500D02*
D03*
D86*
X2298Y24140D02*
D03*
Y23640D02*
D03*
Y23140D02*
D03*
Y22640D02*
D03*
Y22140D02*
D03*
X762Y24140D02*
D03*
Y23640D02*
D03*
Y23140D02*
D03*
Y22640D02*
D03*
Y22140D02*
D03*
D87*
X4650Y7090D02*
D03*
Y8090D02*
D03*
Y16429D02*
D03*
Y17429D02*
D03*
Y19657D02*
D03*
Y20657D02*
D03*
D88*
X20179Y17624D02*
D03*
Y17880D02*
D03*
Y18136D02*
D03*
X20927D02*
D03*
Y17880D02*
D03*
Y17624D02*
D03*
X3786Y22754D02*
D03*
Y23010D02*
D03*
Y23266D02*
D03*
X4534D02*
D03*
Y23010D02*
D03*
Y22754D02*
D03*
X6324Y15506D02*
D03*
Y15250D02*
D03*
Y14994D02*
D03*
X5576D02*
D03*
Y15250D02*
D03*
Y15506D02*
D03*
X5854Y5226D02*
D03*
Y4970D02*
D03*
Y4714D02*
D03*
X5106D02*
D03*
Y4970D02*
D03*
Y5226D02*
D03*
X9456Y5494D02*
D03*
Y6006D02*
D03*
X10204D02*
D03*
Y5750D02*
D03*
Y5494D02*
D03*
X7804Y4106D02*
D03*
Y3850D02*
D03*
Y3594D02*
D03*
X7056D02*
D03*
Y3850D02*
D03*
Y4106D02*
D03*
X9674D02*
D03*
Y3594D02*
D03*
X8926D02*
D03*
Y3850D02*
D03*
Y4106D02*
D03*
D89*
X12148Y7890D02*
D03*
D90*
X11872Y7979D02*
D03*
Y7801D02*
D03*
D91*
X14110Y6058D02*
D03*
D92*
X14021Y5782D02*
D03*
X14199D02*
D03*
D93*
X40267Y6232D02*
D03*
Y4657D02*
D03*
X42924Y6232D02*
D03*
Y4657D02*
D03*
X44307Y6232D02*
D03*
Y4657D02*
D03*
X46964Y6232D02*
D03*
Y4657D02*
D03*
X42924Y985D02*
D03*
Y2560D02*
D03*
X40267Y985D02*
D03*
Y2560D02*
D03*
X46964Y985D02*
D03*
Y2560D02*
D03*
X44307Y985D02*
D03*
Y2560D02*
D03*
X31759Y985D02*
D03*
Y2560D02*
D03*
X29101Y985D02*
D03*
Y2560D02*
D03*
D94*
X40106Y23913D02*
D03*
X42074D02*
D03*
X41090D02*
D03*
Y21747D02*
D03*
X42074D02*
D03*
X40106D02*
D03*
X3160Y1027D02*
D03*
X1192D02*
D03*
X2176D02*
D03*
Y3193D02*
D03*
X1192D02*
D03*
X3160D02*
D03*
D95*
X32500Y17703D02*
D03*
X31811Y16797D02*
D03*
X33189D02*
D03*
X8809Y2328D02*
D03*
X8120D02*
D03*
X7431D02*
D03*
Y872D02*
D03*
X8120D02*
D03*
X8809D02*
D03*
D96*
X10925Y15711D02*
D03*
X10137D02*
D03*
X8563D02*
D03*
X10925Y14609D02*
D03*
X10137D02*
D03*
X7775D02*
D03*
X8563D02*
D03*
X7775Y15711D02*
D03*
D97*
X46226Y16090D02*
D03*
X44848D02*
D03*
X45045D02*
D03*
X45242D02*
D03*
X45438D02*
D03*
X45635D02*
D03*
X45832D02*
D03*
X46029D02*
D03*
X46423D02*
D03*
X44060Y15893D02*
D03*
X44356D02*
D03*
X44553D02*
D03*
X44749D02*
D03*
X44946D02*
D03*
X45143D02*
D03*
X45340D02*
D03*
X45537D02*
D03*
X45734D02*
D03*
X45931D02*
D03*
X46620D02*
D03*
X46423Y15597D02*
D03*
X44060Y15696D02*
D03*
X44257Y15597D02*
D03*
X46620Y15499D02*
D03*
X44257Y15401D02*
D03*
X46423D02*
D03*
X44060Y15302D02*
D03*
X44257Y15204D02*
D03*
X46423D02*
D03*
X44060Y15105D02*
D03*
X46620D02*
D03*
X44257Y15007D02*
D03*
X44060Y14908D02*
D03*
X46620D02*
D03*
X44257Y14810D02*
D03*
X44060Y14712D02*
D03*
X46620D02*
D03*
X44257Y14613D02*
D03*
X46423D02*
D03*
X44060Y14515D02*
D03*
X46620D02*
D03*
X44257Y14416D02*
D03*
X46423D02*
D03*
X44060Y14318D02*
D03*
X46620D02*
D03*
X46423Y14219D02*
D03*
X44060Y14121D02*
D03*
X46620D02*
D03*
X44257Y14023D02*
D03*
X46423D02*
D03*
X46620Y13924D02*
D03*
X44257Y13826D02*
D03*
X44553Y13727D02*
D03*
X44946D02*
D03*
X45143D02*
D03*
X45340D02*
D03*
X45537D02*
D03*
X45734D02*
D03*
X45931D02*
D03*
X46127D02*
D03*
X46620D02*
D03*
X44257Y13530D02*
D03*
X44454D02*
D03*
X44651D02*
D03*
X44848D02*
D03*
X45045D02*
D03*
X45242D02*
D03*
X45438D02*
D03*
X45635D02*
D03*
X45832D02*
D03*
X46029D02*
D03*
X46226D02*
D03*
X46423D02*
D03*
D98*
X45340Y14810D02*
D03*
D99*
X43759Y10070D02*
D03*
Y9570D02*
D03*
Y9070D02*
D03*
Y8570D02*
D03*
X45941Y10070D02*
D03*
Y9570D02*
D03*
Y9070D02*
D03*
Y8570D02*
D03*
D100*
X42340Y20817D02*
D03*
X42497D02*
D03*
X42340Y20660D02*
D03*
X42497D02*
D03*
X8359Y6021D02*
D03*
X8201D02*
D03*
X8359Y6179D02*
D03*
X8201D02*
D03*
X8359Y5371D02*
D03*
X8201D02*
D03*
X8359Y5529D02*
D03*
X8201D02*
D03*
X8359Y4721D02*
D03*
X8201D02*
D03*
X8359Y4879D02*
D03*
X8201D02*
D03*
X9991Y7119D02*
D03*
X10149D02*
D03*
X9991Y6961D02*
D03*
X10149D02*
D03*
X9101Y7119D02*
D03*
X9259D02*
D03*
X9101Y6961D02*
D03*
X9259D02*
D03*
X11779Y6845D02*
D03*
X11937D02*
D03*
X11779Y6687D02*
D03*
X11937D02*
D03*
X10741Y11871D02*
D03*
Y12029D02*
D03*
X10899Y11871D02*
D03*
Y12029D02*
D03*
D101*
X28628Y7524D02*
D03*
Y7681D02*
D03*
Y7839D02*
D03*
Y7996D02*
D03*
X29592D02*
D03*
Y7839D02*
D03*
Y7681D02*
D03*
Y7524D02*
D03*
X23215Y7074D02*
D03*
Y7231D02*
D03*
Y7389D02*
D03*
Y7546D02*
D03*
X23865D02*
D03*
Y7389D02*
D03*
Y7231D02*
D03*
Y7074D02*
D03*
X31778Y7524D02*
D03*
Y7681D02*
D03*
Y7839D02*
D03*
Y7996D02*
D03*
X32742D02*
D03*
Y7839D02*
D03*
Y7681D02*
D03*
Y7524D02*
D03*
X35875Y9064D02*
D03*
Y9221D02*
D03*
Y9379D02*
D03*
Y9536D02*
D03*
X36525D02*
D03*
Y9379D02*
D03*
Y9221D02*
D03*
Y9064D02*
D03*
D102*
X28874Y8085D02*
D03*
X29031D02*
D03*
X29189D02*
D03*
X29346D02*
D03*
Y7435D02*
D03*
X29189D02*
D03*
X29031D02*
D03*
X28874D02*
D03*
X23776Y6828D02*
D03*
X23619D02*
D03*
X23461D02*
D03*
X23304D02*
D03*
Y7792D02*
D03*
X23461D02*
D03*
X23619D02*
D03*
X23776D02*
D03*
X32024Y8085D02*
D03*
X32181D02*
D03*
X32339D02*
D03*
X32496D02*
D03*
Y7435D02*
D03*
X32339D02*
D03*
X32181D02*
D03*
X32024D02*
D03*
X36436Y8818D02*
D03*
X36279D02*
D03*
X36121D02*
D03*
X35964D02*
D03*
Y9782D02*
D03*
X36121D02*
D03*
X36279D02*
D03*
X36436D02*
D03*
D103*
X8659Y10534D02*
D03*
Y10278D02*
D03*
Y10022D02*
D03*
Y9766D02*
D03*
X10981Y10534D02*
D03*
Y10278D02*
D03*
Y10022D02*
D03*
Y9766D02*
D03*
D104*
X33564Y5472D02*
D03*
X33190D02*
D03*
X32816D02*
D03*
Y4408D02*
D03*
X33564D02*
D03*
D105*
X20161Y16236D02*
D03*
Y16610D02*
D03*
Y16984D02*
D03*
X19099D02*
D03*
Y16236D02*
D03*
D106*
X46732Y16983D02*
D03*
Y17436D02*
D03*
X47303D02*
D03*
Y16983D02*
D03*
D107*
X43276Y15167D02*
D03*
X42292D02*
D03*
M02*
