G04*
G04 #@! TF.GenerationSoftware,Altium Limited,Altium Designer,18.0.11 (651)*
G04*
G04 Layer_Color=16711935*
%FSLAX24Y24*%
%MOIN*%
G70*
G01*
G75*
%ADD139C,0.0787*%
%ADD155R,0.0462X0.0922*%
%ADD181C,0.0651*%
%ADD182C,0.1320*%
%ADD183R,0.0651X0.0651*%
%ADD184R,0.0651X0.0651*%
%ADD185O,0.0690X0.0414*%
%ADD186O,0.0414X0.0690*%
%ADD187C,0.0761*%
%ADD188C,0.0300*%
%ADD231C,0.7087*%
%ADD232R,0.2060X0.2060*%
G04:AMPARAMS|DCode=233|XSize=399.7mil|YSize=399.7mil|CornerRadius=101.4mil|HoleSize=0mil|Usage=FLASHONLY|Rotation=270.000|XOffset=0mil|YOffset=0mil|HoleType=Round|Shape=RoundedRectangle|*
%AMROUNDEDRECTD233*
21,1,0.3997,0.1969,0,0,270.0*
21,1,0.1969,0.3997,0,0,270.0*
1,1,0.2029,-0.0984,-0.0984*
1,1,0.2029,-0.0984,0.0984*
1,1,0.2029,0.0984,0.0984*
1,1,0.2029,0.0984,-0.0984*
%
%ADD233ROUNDEDRECTD233*%
%ADD234R,0.0934X0.0462*%
D139*
X50973Y23600D02*
D03*
X5411Y1120D02*
D03*
D155*
X15400Y17423D02*
D03*
Y18577D02*
D03*
X16400Y17423D02*
D03*
Y18577D02*
D03*
X7400D02*
D03*
Y17423D02*
D03*
X11400D02*
D03*
Y18577D02*
D03*
X12400Y17423D02*
D03*
Y18577D02*
D03*
X10400Y17423D02*
D03*
Y18577D02*
D03*
X9400Y17423D02*
D03*
Y18577D02*
D03*
X8400D02*
D03*
Y17423D02*
D03*
X14400Y18577D02*
D03*
Y17423D02*
D03*
X13400Y18577D02*
D03*
Y17423D02*
D03*
X17400Y18577D02*
D03*
Y17423D02*
D03*
X18400Y18577D02*
D03*
Y17423D02*
D03*
X10400Y22577D02*
D03*
Y21423D02*
D03*
X9400Y22577D02*
D03*
Y21423D02*
D03*
X15400Y22577D02*
D03*
Y21423D02*
D03*
X14400D02*
D03*
Y22577D02*
D03*
X13400Y21423D02*
D03*
Y22577D02*
D03*
X11400Y21423D02*
D03*
Y22577D02*
D03*
X12400Y21423D02*
D03*
Y22577D02*
D03*
X16400D02*
D03*
Y21423D02*
D03*
X7400D02*
D03*
Y22577D02*
D03*
X8400Y21423D02*
D03*
Y22577D02*
D03*
X34000Y21423D02*
D03*
Y22577D02*
D03*
X30000D02*
D03*
Y21423D02*
D03*
X29000Y22577D02*
D03*
Y21423D02*
D03*
X31000Y22577D02*
D03*
Y21423D02*
D03*
X32000Y22577D02*
D03*
Y21423D02*
D03*
X33000D02*
D03*
Y22577D02*
D03*
X27000Y21423D02*
D03*
Y22577D02*
D03*
X28000Y21423D02*
D03*
Y22577D02*
D03*
X25000Y21423D02*
D03*
Y22577D02*
D03*
X21000D02*
D03*
Y21423D02*
D03*
X20000Y22577D02*
D03*
Y21423D02*
D03*
X22000Y22577D02*
D03*
Y21423D02*
D03*
X23000Y22577D02*
D03*
Y21423D02*
D03*
X24000D02*
D03*
Y22577D02*
D03*
X18000Y21423D02*
D03*
Y22577D02*
D03*
X19000Y21423D02*
D03*
Y22577D02*
D03*
X11000Y3577D02*
D03*
Y2423D02*
D03*
X15000D02*
D03*
Y3577D02*
D03*
X16000Y2423D02*
D03*
Y3577D02*
D03*
X14000Y2423D02*
D03*
Y3577D02*
D03*
X13000Y2423D02*
D03*
Y3577D02*
D03*
X12000D02*
D03*
Y2423D02*
D03*
X18000Y3577D02*
D03*
Y2423D02*
D03*
X17000Y3577D02*
D03*
Y2423D02*
D03*
X21000D02*
D03*
Y3577D02*
D03*
X22000D02*
D03*
Y2423D02*
D03*
X23000Y3577D02*
D03*
Y2423D02*
D03*
X25000Y3577D02*
D03*
Y2423D02*
D03*
X24000Y3577D02*
D03*
Y2423D02*
D03*
X20000D02*
D03*
Y3577D02*
D03*
D181*
X12000Y10000D02*
D03*
Y11000D02*
D03*
X3220Y4490D02*
D03*
X7400Y24500D02*
D03*
Y23500D02*
D03*
X8400D02*
D03*
Y24500D02*
D03*
X10400D02*
D03*
Y23500D02*
D03*
X11400D02*
D03*
Y24500D02*
D03*
X13400Y23500D02*
D03*
Y24500D02*
D03*
X16400Y23500D02*
D03*
X15400Y24500D02*
D03*
Y23500D02*
D03*
X14400Y24500D02*
D03*
Y23500D02*
D03*
X12400Y24500D02*
D03*
Y23500D02*
D03*
X9400D02*
D03*
Y24500D02*
D03*
X27000D02*
D03*
Y23500D02*
D03*
X30000D02*
D03*
Y24500D02*
D03*
X32000Y23500D02*
D03*
Y24500D02*
D03*
X33000Y23500D02*
D03*
Y24500D02*
D03*
X34000Y23500D02*
D03*
X31000Y24500D02*
D03*
Y23500D02*
D03*
X29000Y24500D02*
D03*
Y23500D02*
D03*
X28000D02*
D03*
Y24500D02*
D03*
X18000D02*
D03*
Y23500D02*
D03*
X21000D02*
D03*
Y24500D02*
D03*
X23000Y23500D02*
D03*
Y24500D02*
D03*
X24000Y23500D02*
D03*
Y24500D02*
D03*
X25000Y23500D02*
D03*
X22000Y24500D02*
D03*
Y23500D02*
D03*
X20000Y24500D02*
D03*
Y23500D02*
D03*
X19000D02*
D03*
Y24500D02*
D03*
X18000Y500D02*
D03*
Y1500D02*
D03*
X15000D02*
D03*
Y500D02*
D03*
X13000Y1500D02*
D03*
Y500D02*
D03*
X12000Y1500D02*
D03*
Y500D02*
D03*
X11000Y1500D02*
D03*
X14000Y500D02*
D03*
Y1500D02*
D03*
X16000Y500D02*
D03*
Y1500D02*
D03*
X17000D02*
D03*
Y500D02*
D03*
X25000Y1500D02*
D03*
Y500D02*
D03*
X23000Y1500D02*
D03*
Y500D02*
D03*
X20000Y1500D02*
D03*
X21000Y500D02*
D03*
Y1500D02*
D03*
X22000Y500D02*
D03*
Y1500D02*
D03*
X24000Y500D02*
D03*
Y1500D02*
D03*
X49250Y24000D02*
D03*
X26750Y2250D02*
D03*
D182*
X50500Y18250D02*
D03*
X26000Y5000D02*
D03*
Y16000D02*
D03*
X5500Y3000D02*
D03*
X6000Y22000D02*
D03*
X38000Y3000D02*
D03*
X35500Y22000D02*
D03*
D183*
X12000Y9000D02*
D03*
X3220Y5490D02*
D03*
D184*
X16400Y24500D02*
D03*
X34000D02*
D03*
X25000D02*
D03*
X11000Y500D02*
D03*
X20000D02*
D03*
D185*
X765Y13799D02*
D03*
Y11201D02*
D03*
D186*
X34027Y1400D02*
D03*
X36626D02*
D03*
D187*
X2880Y7590D02*
D03*
Y16929D02*
D03*
Y20157D02*
D03*
D188*
X6340Y11790D02*
D03*
X1590Y10630D02*
D03*
X5930Y15480D02*
D03*
X6310Y14550D02*
D03*
X3370Y15434D02*
D03*
X2790Y13554D02*
D03*
X1360Y11844D02*
D03*
Y12754D02*
D03*
X4326Y11795D02*
D03*
X3700Y13504D02*
D03*
X5296Y11670D02*
D03*
X4500Y14500D02*
D03*
X4216Y11080D02*
D03*
X2446Y11870D02*
D03*
X6300Y12360D02*
D03*
X3210Y14500D02*
D03*
X2760Y15190D02*
D03*
X7140Y14630D02*
D03*
X3140Y11780D02*
D03*
X2670Y11360D02*
D03*
X4650Y10990D02*
D03*
X5060D02*
D03*
X5020Y9660D02*
D03*
X4670D02*
D03*
D231*
X4500Y12494D02*
D03*
D232*
Y7344D02*
D03*
Y17644D02*
D03*
D233*
Y12494D02*
D03*
D234*
X24438Y12000D02*
D03*
X26662D02*
D03*
X24438Y13000D02*
D03*
Y14000D02*
D03*
X26662Y13000D02*
D03*
Y14000D02*
D03*
M02*
